G04 #@! TF.FileFunction,Copper,L2,Bot,Signal*
%FSLAX46Y46*%
G04 Gerber Fmt 4.6, Leading zero omitted, Abs format (unit mm)*
G04 Created by KiCad (PCBNEW 4.0.6) date 08/24/17 13:41:05*
%MOMM*%
%LPD*%
G01*
G04 APERTURE LIST*
%ADD10C,0.100000*%
%ADD11R,2.400000X2.400000*%
%ADD12C,2.400000*%
%ADD13R,2.000000X2.000000*%
%ADD14C,2.000000*%
%ADD15C,1.600000*%
%ADD16R,1.600000X1.600000*%
%ADD17O,1.600000X1.600000*%
%ADD18R,1.800000X1.800000*%
%ADD19C,1.800000*%
%ADD20C,4.800000*%
%ADD21R,4.800000X4.800000*%
%ADD22C,1.520000*%
%ADD23R,1.520000X1.520000*%
G04 APERTURE END LIST*
D10*
D11*
X114300000Y-87630000D03*
D12*
X109300000Y-87630000D03*
D13*
X102870000Y-143510000D03*
D14*
X107870000Y-143510000D03*
D15*
X119380000Y-114300000D03*
X114380000Y-114300000D03*
X119380000Y-127000000D03*
X114380000Y-127000000D03*
X133350000Y-109220000D03*
X128350000Y-109220000D03*
D13*
X128270000Y-139700000D03*
D14*
X123270000Y-139700000D03*
D13*
X133350000Y-129540000D03*
D14*
X128350000Y-129540000D03*
D15*
X119380000Y-109220000D03*
X124380000Y-109220000D03*
D13*
X132080000Y-71120000D03*
D14*
X137080000Y-71120000D03*
D15*
X114300000Y-105410000D03*
X109300000Y-105410000D03*
X133350000Y-54610000D03*
X138350000Y-54610000D03*
X133350000Y-50800000D03*
X138350000Y-50800000D03*
D13*
X106680000Y-40640000D03*
D14*
X111680000Y-40640000D03*
D16*
X107950000Y-119380000D03*
D17*
X100330000Y-119380000D03*
D16*
X116840000Y-73660000D03*
D17*
X124460000Y-73660000D03*
D16*
X124460000Y-78740000D03*
D17*
X116840000Y-78740000D03*
D16*
X116840000Y-60960000D03*
D17*
X124460000Y-60960000D03*
D16*
X124460000Y-66040000D03*
D17*
X116840000Y-66040000D03*
D18*
X130810000Y-88900000D03*
D19*
X130810000Y-86360000D03*
D16*
X124460000Y-102870000D03*
D17*
X132080000Y-95250000D03*
X127000000Y-102870000D03*
X129540000Y-95250000D03*
X129540000Y-102870000D03*
X127000000Y-95250000D03*
X132080000Y-102870000D03*
X124460000Y-95250000D03*
D20*
X80260000Y-93980000D03*
D21*
X86360000Y-93980000D03*
D20*
X82550000Y-99060000D03*
D22*
X113030000Y-49530000D03*
X110490000Y-49530000D03*
D23*
X115570000Y-49530000D03*
D22*
X123190000Y-53340000D03*
X123190000Y-50800000D03*
D23*
X123190000Y-55880000D03*
D15*
X107950000Y-114300000D03*
D17*
X100330000Y-114300000D03*
D15*
X100330000Y-124460000D03*
D17*
X107950000Y-124460000D03*
D15*
X107950000Y-134620000D03*
D17*
X100330000Y-134620000D03*
D15*
X100330000Y-129540000D03*
D17*
X107950000Y-129540000D03*
D15*
X120650000Y-120650000D03*
D17*
X113030000Y-120650000D03*
D15*
X127000000Y-114300000D03*
D17*
X134620000Y-114300000D03*
D15*
X127000000Y-120650000D03*
D17*
X134620000Y-120650000D03*
D15*
X130810000Y-78740000D03*
D17*
X138430000Y-78740000D03*
D15*
X130810000Y-58420000D03*
D17*
X138430000Y-58420000D03*
D15*
X138430000Y-46990000D03*
D17*
X130810000Y-46990000D03*
D15*
X138430000Y-43180000D03*
D17*
X130810000Y-43180000D03*
D15*
X107950000Y-57150000D03*
D17*
X115570000Y-57150000D03*
D15*
X138430000Y-62230000D03*
D17*
X130810000Y-62230000D03*
D15*
X116840000Y-43180000D03*
D17*
X124460000Y-43180000D03*
M02*
