G04 #@! TF.FileFunction,Copper,L1,Top,Signal*
%FSLAX46Y46*%
G04 Gerber Fmt 4.6, Leading zero omitted, Abs format (unit mm)*
G04 Created by KiCad (PCBNEW 4.0.6) date 08/31/17 07:48:38*
%MOMM*%
%LPD*%
G01*
G04 APERTURE LIST*
%ADD10C,0.100000*%
%ADD11R,1.600000X1.600000*%
%ADD12O,1.600000X1.600000*%
%ADD13R,1.800000X1.800000*%
%ADD14C,1.800000*%
%ADD15C,1.520000*%
%ADD16R,1.520000X1.520000*%
%ADD17C,2.000000*%
%ADD18C,2.500000*%
%ADD19C,1.600000*%
%ADD20C,0.800000*%
G04 APERTURE END LIST*
D10*
D11*
X106680000Y-110490000D03*
D12*
X99060000Y-110490000D03*
D11*
X116840000Y-76200000D03*
D12*
X124460000Y-76200000D03*
D11*
X124460000Y-80010000D03*
D12*
X116840000Y-80010000D03*
D11*
X116840000Y-68580000D03*
D12*
X124460000Y-68580000D03*
D11*
X124460000Y-72390000D03*
D12*
X116840000Y-72390000D03*
D13*
X125730000Y-87630000D03*
D14*
X125730000Y-85090000D03*
D15*
X115570000Y-58420000D03*
X113030000Y-58420000D03*
D16*
X118110000Y-58420000D03*
D15*
X124460000Y-62230000D03*
X124460000Y-59690000D03*
D16*
X124460000Y-64770000D03*
D17*
X134620000Y-105410000D03*
X127120000Y-105410000D03*
D11*
X124460000Y-100330000D03*
D12*
X132080000Y-92710000D03*
X127000000Y-100330000D03*
X129540000Y-92710000D03*
X129540000Y-100330000D03*
X127000000Y-92710000D03*
X132080000Y-100330000D03*
X124460000Y-92710000D03*
D18*
X105410000Y-66040000D03*
X91440000Y-66040000D03*
X96520000Y-100330000D03*
X92710000Y-114300000D03*
X92710000Y-106680000D03*
X111760000Y-105410000D03*
X87630000Y-101600000D03*
X146050000Y-118110000D03*
X146050000Y-111760000D03*
X146050000Y-105410000D03*
X146050000Y-92710000D03*
X146050000Y-86360000D03*
X146050000Y-80010000D03*
X146050000Y-67310000D03*
X146050000Y-60960000D03*
X146050000Y-54610000D03*
D19*
X106680000Y-106680000D03*
D12*
X99060000Y-106680000D03*
D19*
X99060000Y-114300000D03*
D12*
X106680000Y-114300000D03*
D19*
X106680000Y-121920000D03*
D12*
X99060000Y-121920000D03*
D19*
X99060000Y-118110000D03*
D12*
X106680000Y-118110000D03*
D19*
X123190000Y-114300000D03*
D12*
X115570000Y-114300000D03*
D19*
X127000000Y-109220000D03*
D12*
X134620000Y-109220000D03*
D19*
X127000000Y-113030000D03*
D12*
X134620000Y-113030000D03*
D19*
X132080000Y-80010000D03*
D12*
X139700000Y-80010000D03*
D19*
X130810000Y-68580000D03*
D12*
X138430000Y-68580000D03*
D19*
X138430000Y-57150000D03*
D12*
X130810000Y-57150000D03*
D19*
X119380000Y-53340000D03*
D12*
X127000000Y-53340000D03*
D19*
X118110000Y-121920000D03*
D12*
X125730000Y-121920000D03*
D19*
X119380000Y-63500000D03*
D12*
X111760000Y-63500000D03*
D19*
X138430000Y-72390000D03*
D12*
X130810000Y-72390000D03*
D19*
X138430000Y-53340000D03*
D12*
X130810000Y-53340000D03*
D11*
X119380000Y-86360000D03*
D19*
X116880000Y-86360000D03*
X120650000Y-110490000D03*
X115650000Y-110490000D03*
X121920000Y-118110000D03*
X116920000Y-118110000D03*
D11*
X140970000Y-118110000D03*
D19*
X138470000Y-118110000D03*
X132080000Y-118110000D03*
X127080000Y-118110000D03*
X119380000Y-105410000D03*
X124380000Y-105410000D03*
D11*
X128270000Y-77470000D03*
D19*
X128270000Y-74970000D03*
X116840000Y-99060000D03*
X111840000Y-99060000D03*
X133350000Y-64770000D03*
X138350000Y-64770000D03*
X133350000Y-60960000D03*
X138350000Y-60960000D03*
D11*
X111760000Y-53340000D03*
D19*
X109260000Y-53340000D03*
D11*
X95250000Y-120650000D03*
D19*
X92750000Y-120650000D03*
D20*
X134620000Y-91440000D02*
X133350000Y-90170000D01*
X132080000Y-100330000D02*
X133350000Y-100330000D01*
X134620000Y-99060000D02*
X133350000Y-100330000D01*
X134620000Y-91440000D02*
X134620000Y-99060000D01*
X128270000Y-90170000D02*
X125730000Y-87630000D01*
X133350000Y-90170000D02*
X128270000Y-90170000D01*
X123190000Y-114300000D02*
X123190000Y-116840000D01*
X123190000Y-116840000D02*
X121920000Y-118110000D01*
X123190000Y-114300000D02*
X123190000Y-109220000D01*
X121920000Y-99060000D02*
X123190000Y-97790000D01*
X123190000Y-97790000D02*
X128270000Y-97790000D01*
X128270000Y-97790000D02*
X129540000Y-99060000D01*
X129540000Y-99060000D02*
X129540000Y-100330000D01*
X121920000Y-107950000D02*
X123190000Y-109220000D01*
X121920000Y-100330000D02*
X121920000Y-107950000D01*
X121920000Y-100330000D02*
X121920000Y-99060000D01*
X139700000Y-80010000D02*
X140970000Y-80010000D01*
X146050000Y-101600000D02*
X146050000Y-105410000D01*
X142240000Y-97790000D02*
X146050000Y-101600000D01*
X142240000Y-81280000D02*
X142240000Y-97790000D01*
X140970000Y-80010000D02*
X142240000Y-81280000D01*
X139700000Y-115570000D02*
X143510000Y-115570000D01*
X127000000Y-113030000D02*
X127000000Y-114300000D01*
X128270000Y-115570000D02*
X139700000Y-115570000D01*
X127000000Y-114300000D02*
X128270000Y-115570000D01*
X143510000Y-115570000D02*
X146050000Y-118110000D01*
X140970000Y-50800000D02*
X142240000Y-50800000D01*
X138430000Y-50800000D02*
X140970000Y-50800000D01*
X142240000Y-50800000D02*
X146050000Y-54610000D01*
X138430000Y-53340000D02*
X138430000Y-50800000D01*
X109260000Y-53340000D02*
X109260000Y-52110000D01*
X110570000Y-50800000D02*
X138430000Y-50800000D01*
X109260000Y-52110000D02*
X110570000Y-50800000D01*
X130810000Y-82550000D02*
X127000000Y-82550000D01*
X135890000Y-80010000D02*
X133350000Y-82550000D01*
X133350000Y-82550000D02*
X130810000Y-82550000D01*
X138430000Y-72390000D02*
X137160000Y-72390000D01*
X135890000Y-73660000D02*
X137160000Y-72390000D01*
X135890000Y-73660000D02*
X135890000Y-80010000D01*
X125730000Y-83820000D02*
X125730000Y-85090000D01*
X127000000Y-82550000D02*
X125730000Y-83820000D01*
X148590000Y-124460000D02*
X88900000Y-124460000D01*
X87630000Y-101600000D02*
X87630000Y-120650000D01*
X152400000Y-120650000D02*
X148590000Y-124460000D01*
X152400000Y-68580000D02*
X152400000Y-66040000D01*
X152400000Y-119380000D02*
X152400000Y-68580000D01*
X152400000Y-66040000D02*
X147320000Y-60960000D01*
X152400000Y-119380000D02*
X152400000Y-120650000D01*
X87630000Y-123190000D02*
X87630000Y-120650000D01*
X88900000Y-124460000D02*
X87630000Y-123190000D01*
X147320000Y-60960000D02*
X146050000Y-60960000D01*
M02*
