G04 #@! TF.FileFunction,Legend,Top*
%FSLAX46Y46*%
G04 Gerber Fmt 4.6, Leading zero omitted, Abs format (unit mm)*
G04 Created by KiCad (PCBNEW 4.0.6) date 08/31/17 07:48:38*
%MOMM*%
%LPD*%
G01*
G04 APERTURE LIST*
%ADD10C,0.100000*%
%ADD11C,0.300000*%
%ADD12C,0.200000*%
%ADD13C,0.120000*%
%ADD14C,0.150000*%
G04 APERTURE END LIST*
D10*
D11*
X88714286Y-52743571D02*
X88714286Y-51243571D01*
X89071429Y-51243571D01*
X89285714Y-51315000D01*
X89428572Y-51457857D01*
X89500000Y-51600714D01*
X89571429Y-51886429D01*
X89571429Y-52100714D01*
X89500000Y-52386429D01*
X89428572Y-52529286D01*
X89285714Y-52672143D01*
X89071429Y-52743571D01*
X88714286Y-52743571D01*
X90214286Y-52743571D02*
X90214286Y-51743571D01*
X90214286Y-51243571D02*
X90142857Y-51315000D01*
X90214286Y-51386429D01*
X90285714Y-51315000D01*
X90214286Y-51243571D01*
X90214286Y-51386429D01*
X90857143Y-52672143D02*
X91000000Y-52743571D01*
X91285715Y-52743571D01*
X91428572Y-52672143D01*
X91500000Y-52529286D01*
X91500000Y-52457857D01*
X91428572Y-52315000D01*
X91285715Y-52243571D01*
X91071429Y-52243571D01*
X90928572Y-52172143D01*
X90857143Y-52029286D01*
X90857143Y-51957857D01*
X90928572Y-51815000D01*
X91071429Y-51743571D01*
X91285715Y-51743571D01*
X91428572Y-51815000D01*
X91928572Y-51743571D02*
X92500001Y-51743571D01*
X92142858Y-51243571D02*
X92142858Y-52529286D01*
X92214286Y-52672143D01*
X92357144Y-52743571D01*
X92500001Y-52743571D01*
X93214287Y-52743571D02*
X93071429Y-52672143D01*
X93000001Y-52600714D01*
X92928572Y-52457857D01*
X92928572Y-52029286D01*
X93000001Y-51886429D01*
X93071429Y-51815000D01*
X93214287Y-51743571D01*
X93428572Y-51743571D01*
X93571429Y-51815000D01*
X93642858Y-51886429D01*
X93714287Y-52029286D01*
X93714287Y-52457857D01*
X93642858Y-52600714D01*
X93571429Y-52672143D01*
X93428572Y-52743571D01*
X93214287Y-52743571D01*
X94357144Y-52743571D02*
X94357144Y-51743571D01*
X94357144Y-52029286D02*
X94428572Y-51886429D01*
X94500001Y-51815000D01*
X94642858Y-51743571D01*
X94785715Y-51743571D01*
X95285715Y-52743571D02*
X95285715Y-51743571D01*
X95285715Y-52029286D02*
X95357143Y-51886429D01*
X95428572Y-51815000D01*
X95571429Y-51743571D01*
X95714286Y-51743571D01*
X96428572Y-52743571D02*
X96285714Y-52672143D01*
X96214286Y-52600714D01*
X96142857Y-52457857D01*
X96142857Y-52029286D01*
X96214286Y-51886429D01*
X96285714Y-51815000D01*
X96428572Y-51743571D01*
X96642857Y-51743571D01*
X96785714Y-51815000D01*
X96857143Y-51886429D01*
X96928572Y-52029286D01*
X96928572Y-52457857D01*
X96857143Y-52600714D01*
X96785714Y-52672143D01*
X96642857Y-52743571D01*
X96428572Y-52743571D01*
X98142857Y-52672143D02*
X98000000Y-52743571D01*
X97714286Y-52743571D01*
X97571429Y-52672143D01*
X97500000Y-52529286D01*
X97500000Y-51957857D01*
X97571429Y-51815000D01*
X97714286Y-51743571D01*
X98000000Y-51743571D01*
X98142857Y-51815000D01*
X98214286Y-51957857D01*
X98214286Y-52100714D01*
X97500000Y-52243571D01*
X99500000Y-52743571D02*
X99500000Y-51243571D01*
X99500000Y-52672143D02*
X99357143Y-52743571D01*
X99071429Y-52743571D01*
X98928571Y-52672143D01*
X98857143Y-52600714D01*
X98785714Y-52457857D01*
X98785714Y-52029286D01*
X98857143Y-51886429D01*
X98928571Y-51815000D01*
X99071429Y-51743571D01*
X99357143Y-51743571D01*
X99500000Y-51815000D01*
X100428572Y-52743571D02*
X100285714Y-52672143D01*
X100214286Y-52600714D01*
X100142857Y-52457857D01*
X100142857Y-52029286D01*
X100214286Y-51886429D01*
X100285714Y-51815000D01*
X100428572Y-51743571D01*
X100642857Y-51743571D01*
X100785714Y-51815000D01*
X100857143Y-51886429D01*
X100928572Y-52029286D01*
X100928572Y-52457857D01*
X100857143Y-52600714D01*
X100785714Y-52672143D01*
X100642857Y-52743571D01*
X100428572Y-52743571D01*
X101571429Y-52743571D02*
X101571429Y-51743571D01*
X101571429Y-52029286D02*
X101642857Y-51886429D01*
X101714286Y-51815000D01*
X101857143Y-51743571D01*
X102000000Y-51743571D01*
X90500000Y-54865000D02*
X91214286Y-54865000D01*
X90357143Y-55293571D02*
X90857143Y-53793571D01*
X91357143Y-55293571D01*
X91857143Y-55150714D02*
X91928571Y-55222143D01*
X91857143Y-55293571D01*
X91785714Y-55222143D01*
X91857143Y-55150714D01*
X91857143Y-55293571D01*
X93714286Y-55293571D02*
X93714286Y-53793571D01*
X94214286Y-54865000D01*
X94714286Y-53793571D01*
X94714286Y-55293571D01*
X96071429Y-55293571D02*
X96071429Y-54507857D01*
X96000000Y-54365000D01*
X95857143Y-54293571D01*
X95571429Y-54293571D01*
X95428572Y-54365000D01*
X96071429Y-55222143D02*
X95928572Y-55293571D01*
X95571429Y-55293571D01*
X95428572Y-55222143D01*
X95357143Y-55079286D01*
X95357143Y-54936429D01*
X95428572Y-54793571D01*
X95571429Y-54722143D01*
X95928572Y-54722143D01*
X96071429Y-54650714D01*
X96785715Y-55293571D02*
X96785715Y-54293571D01*
X96785715Y-54579286D02*
X96857143Y-54436429D01*
X96928572Y-54365000D01*
X97071429Y-54293571D01*
X97214286Y-54293571D01*
X97500000Y-54293571D02*
X98071429Y-54293571D01*
X97714286Y-53793571D02*
X97714286Y-55079286D01*
X97785714Y-55222143D01*
X97928572Y-55293571D01*
X98071429Y-55293571D01*
X98571429Y-55293571D02*
X98571429Y-54293571D01*
X98571429Y-53793571D02*
X98500000Y-53865000D01*
X98571429Y-53936429D01*
X98642857Y-53865000D01*
X98571429Y-53793571D01*
X98571429Y-53936429D01*
X99285715Y-54293571D02*
X99285715Y-55293571D01*
X99285715Y-54436429D02*
X99357143Y-54365000D01*
X99500001Y-54293571D01*
X99714286Y-54293571D01*
X99857143Y-54365000D01*
X99928572Y-54507857D01*
X99928572Y-55293571D01*
D12*
X110490000Y-86360000D02*
G75*
G03X110490000Y-86360000I-8890000J0D01*
G01*
D13*
X104930000Y-111550000D02*
X104930000Y-109430000D01*
X104930000Y-109430000D02*
X100810000Y-109430000D01*
X100810000Y-109430000D02*
X100810000Y-111550000D01*
X100810000Y-111550000D02*
X104930000Y-111550000D01*
X105700000Y-110490000D02*
X104930000Y-110490000D01*
X100040000Y-110490000D02*
X100810000Y-110490000D01*
X104270000Y-111550000D02*
X104270000Y-109430000D01*
X118590000Y-75140000D02*
X118590000Y-77260000D01*
X118590000Y-77260000D02*
X122710000Y-77260000D01*
X122710000Y-77260000D02*
X122710000Y-75140000D01*
X122710000Y-75140000D02*
X118590000Y-75140000D01*
X117820000Y-76200000D02*
X118590000Y-76200000D01*
X123480000Y-76200000D02*
X122710000Y-76200000D01*
X119250000Y-75140000D02*
X119250000Y-77260000D01*
X122710000Y-81070000D02*
X122710000Y-78950000D01*
X122710000Y-78950000D02*
X118590000Y-78950000D01*
X118590000Y-78950000D02*
X118590000Y-81070000D01*
X118590000Y-81070000D02*
X122710000Y-81070000D01*
X123480000Y-80010000D02*
X122710000Y-80010000D01*
X117820000Y-80010000D02*
X118590000Y-80010000D01*
X122050000Y-81070000D02*
X122050000Y-78950000D01*
X118590000Y-67520000D02*
X118590000Y-69640000D01*
X118590000Y-69640000D02*
X122710000Y-69640000D01*
X122710000Y-69640000D02*
X122710000Y-67520000D01*
X122710000Y-67520000D02*
X118590000Y-67520000D01*
X117820000Y-68580000D02*
X118590000Y-68580000D01*
X123480000Y-68580000D02*
X122710000Y-68580000D01*
X119250000Y-67520000D02*
X119250000Y-69640000D01*
X122710000Y-73450000D02*
X122710000Y-71330000D01*
X122710000Y-71330000D02*
X118590000Y-71330000D01*
X118590000Y-71330000D02*
X118590000Y-73450000D01*
X118590000Y-73450000D02*
X122710000Y-73450000D01*
X123480000Y-72390000D02*
X122710000Y-72390000D01*
X117820000Y-72390000D02*
X118590000Y-72390000D01*
X122050000Y-73450000D02*
X122050000Y-71330000D01*
X125731958Y-83320001D02*
G75*
G03X124090488Y-88920000I-1958J-3039999D01*
G01*
X125728042Y-83320001D02*
G75*
G02X127369512Y-88920000I1958J-3039999D01*
G01*
X128230000Y-86360000D02*
G75*
G03X128230000Y-86360000I-2500000J0D01*
G01*
X124090000Y-88920000D02*
X127370000Y-88920000D01*
X117370000Y-56570000D02*
X113770000Y-56570000D01*
X117894184Y-57297205D02*
G75*
G03X117370000Y-56570000I-2324184J-1122795D01*
G01*
X117926400Y-59518807D02*
G75*
G02X115570000Y-61020000I-2356400J1098807D01*
G01*
X113213600Y-59518807D02*
G75*
G03X115570000Y-61020000I2356400J1098807D01*
G01*
X113245816Y-57297205D02*
G75*
G02X113770000Y-56570000I2324184J-1122795D01*
G01*
X126310000Y-64030000D02*
X126310000Y-60430000D01*
X125582795Y-64554184D02*
G75*
G03X126310000Y-64030000I-1122795J2324184D01*
G01*
X123361193Y-64586400D02*
G75*
G02X121860000Y-62230000I1098807J2356400D01*
G01*
X123361193Y-59873600D02*
G75*
G03X121860000Y-62230000I1098807J-2356400D01*
G01*
X125582795Y-59905816D02*
G75*
G02X126310000Y-60430000I-1122795J-2324184D01*
G01*
X134680000Y-107970000D02*
X127060000Y-107970000D01*
X134680000Y-102850000D02*
X127060000Y-102850000D01*
X134680000Y-107970000D02*
X134680000Y-106605000D01*
X134680000Y-104215000D02*
X134680000Y-102850000D01*
X127060000Y-107970000D02*
X127060000Y-106605000D01*
X127060000Y-104215000D02*
X127060000Y-102850000D01*
X123070000Y-97520000D02*
X123070000Y-99290000D01*
X123070000Y-99290000D02*
X133470000Y-99290000D01*
X133470000Y-99290000D02*
X133470000Y-93750000D01*
X133470000Y-93750000D02*
X123070000Y-93750000D01*
X123070000Y-93750000D02*
X123070000Y-95520000D01*
X123070000Y-101720000D02*
X133470000Y-101720000D01*
X133470000Y-101720000D02*
X133470000Y-91320000D01*
X133470000Y-91320000D02*
X123070000Y-91320000D01*
X123070000Y-91320000D02*
X123070000Y-101720000D01*
X123070000Y-95520000D02*
G75*
G02X123070000Y-97520000I0J-1000000D01*
G01*
X106080000Y-107660000D02*
X106080000Y-107990000D01*
X106080000Y-107990000D02*
X99660000Y-107990000D01*
X99660000Y-107990000D02*
X99660000Y-107660000D01*
X106080000Y-105700000D02*
X106080000Y-105370000D01*
X106080000Y-105370000D02*
X99660000Y-105370000D01*
X99660000Y-105370000D02*
X99660000Y-105700000D01*
X99660000Y-113320000D02*
X99660000Y-112990000D01*
X99660000Y-112990000D02*
X106080000Y-112990000D01*
X106080000Y-112990000D02*
X106080000Y-113320000D01*
X99660000Y-115280000D02*
X99660000Y-115610000D01*
X99660000Y-115610000D02*
X106080000Y-115610000D01*
X106080000Y-115610000D02*
X106080000Y-115280000D01*
X106080000Y-122900000D02*
X106080000Y-123230000D01*
X106080000Y-123230000D02*
X99660000Y-123230000D01*
X99660000Y-123230000D02*
X99660000Y-122900000D01*
X106080000Y-120940000D02*
X106080000Y-120610000D01*
X106080000Y-120610000D02*
X99660000Y-120610000D01*
X99660000Y-120610000D02*
X99660000Y-120940000D01*
X99660000Y-117130000D02*
X99660000Y-116800000D01*
X99660000Y-116800000D02*
X106080000Y-116800000D01*
X106080000Y-116800000D02*
X106080000Y-117130000D01*
X99660000Y-119090000D02*
X99660000Y-119420000D01*
X99660000Y-119420000D02*
X106080000Y-119420000D01*
X106080000Y-119420000D02*
X106080000Y-119090000D01*
X122590000Y-115280000D02*
X122590000Y-115610000D01*
X122590000Y-115610000D02*
X116170000Y-115610000D01*
X116170000Y-115610000D02*
X116170000Y-115280000D01*
X122590000Y-113320000D02*
X122590000Y-112990000D01*
X122590000Y-112990000D02*
X116170000Y-112990000D01*
X116170000Y-112990000D02*
X116170000Y-113320000D01*
X127600000Y-108240000D02*
X127600000Y-107910000D01*
X127600000Y-107910000D02*
X134020000Y-107910000D01*
X134020000Y-107910000D02*
X134020000Y-108240000D01*
X127600000Y-110200000D02*
X127600000Y-110530000D01*
X127600000Y-110530000D02*
X134020000Y-110530000D01*
X134020000Y-110530000D02*
X134020000Y-110200000D01*
X127600000Y-112050000D02*
X127600000Y-111720000D01*
X127600000Y-111720000D02*
X134020000Y-111720000D01*
X134020000Y-111720000D02*
X134020000Y-112050000D01*
X127600000Y-114010000D02*
X127600000Y-114340000D01*
X127600000Y-114340000D02*
X134020000Y-114340000D01*
X134020000Y-114340000D02*
X134020000Y-114010000D01*
X132680000Y-79030000D02*
X132680000Y-78700000D01*
X132680000Y-78700000D02*
X139100000Y-78700000D01*
X139100000Y-78700000D02*
X139100000Y-79030000D01*
X132680000Y-80990000D02*
X132680000Y-81320000D01*
X132680000Y-81320000D02*
X139100000Y-81320000D01*
X139100000Y-81320000D02*
X139100000Y-80990000D01*
X131410000Y-67600000D02*
X131410000Y-67270000D01*
X131410000Y-67270000D02*
X137830000Y-67270000D01*
X137830000Y-67270000D02*
X137830000Y-67600000D01*
X131410000Y-69560000D02*
X131410000Y-69890000D01*
X131410000Y-69890000D02*
X137830000Y-69890000D01*
X137830000Y-69890000D02*
X137830000Y-69560000D01*
X137830000Y-58130000D02*
X137830000Y-58460000D01*
X137830000Y-58460000D02*
X131410000Y-58460000D01*
X131410000Y-58460000D02*
X131410000Y-58130000D01*
X137830000Y-56170000D02*
X137830000Y-55840000D01*
X137830000Y-55840000D02*
X131410000Y-55840000D01*
X131410000Y-55840000D02*
X131410000Y-56170000D01*
X119980000Y-52360000D02*
X119980000Y-52030000D01*
X119980000Y-52030000D02*
X126400000Y-52030000D01*
X126400000Y-52030000D02*
X126400000Y-52360000D01*
X119980000Y-54320000D02*
X119980000Y-54650000D01*
X119980000Y-54650000D02*
X126400000Y-54650000D01*
X126400000Y-54650000D02*
X126400000Y-54320000D01*
X118710000Y-120940000D02*
X118710000Y-120610000D01*
X118710000Y-120610000D02*
X125130000Y-120610000D01*
X125130000Y-120610000D02*
X125130000Y-120940000D01*
X118710000Y-122900000D02*
X118710000Y-123230000D01*
X118710000Y-123230000D02*
X125130000Y-123230000D01*
X125130000Y-123230000D02*
X125130000Y-122900000D01*
X118780000Y-64480000D02*
X118780000Y-64810000D01*
X118780000Y-64810000D02*
X112360000Y-64810000D01*
X112360000Y-64810000D02*
X112360000Y-64480000D01*
X118780000Y-62520000D02*
X118780000Y-62190000D01*
X118780000Y-62190000D02*
X112360000Y-62190000D01*
X112360000Y-62190000D02*
X112360000Y-62520000D01*
X137830000Y-73370000D02*
X137830000Y-73700000D01*
X137830000Y-73700000D02*
X131410000Y-73700000D01*
X131410000Y-73700000D02*
X131410000Y-73370000D01*
X137830000Y-71410000D02*
X137830000Y-71080000D01*
X137830000Y-71080000D02*
X131410000Y-71080000D01*
X131410000Y-71080000D02*
X131410000Y-71410000D01*
X137830000Y-54320000D02*
X137830000Y-54650000D01*
X137830000Y-54650000D02*
X131410000Y-54650000D01*
X131410000Y-54650000D02*
X131410000Y-54320000D01*
X137830000Y-52360000D02*
X137830000Y-52030000D01*
X137830000Y-52030000D02*
X131410000Y-52030000D01*
X131410000Y-52030000D02*
X131410000Y-52360000D01*
X115824278Y-87539723D02*
G75*
G03X120435580Y-87540000I2305722J1179723D01*
G01*
X115824278Y-85180277D02*
G75*
G02X120435580Y-85180000I2305722J-1179723D01*
G01*
X115824278Y-85180277D02*
G75*
G03X115824420Y-87540000I2305722J-1179723D01*
G01*
X118130000Y-88910000D02*
X118130000Y-83810000D01*
X118090000Y-88910000D02*
X118090000Y-83810000D01*
X118050000Y-88909000D02*
X118050000Y-83811000D01*
X118010000Y-88908000D02*
X118010000Y-83812000D01*
X117970000Y-88906000D02*
X117970000Y-83814000D01*
X117930000Y-88903000D02*
X117930000Y-83817000D01*
X117890000Y-88899000D02*
X117890000Y-83821000D01*
X117850000Y-88895000D02*
X117850000Y-87340000D01*
X117850000Y-85380000D02*
X117850000Y-83825000D01*
X117810000Y-88891000D02*
X117810000Y-87340000D01*
X117810000Y-85380000D02*
X117810000Y-83829000D01*
X117770000Y-88885000D02*
X117770000Y-87340000D01*
X117770000Y-85380000D02*
X117770000Y-83835000D01*
X117730000Y-88879000D02*
X117730000Y-87340000D01*
X117730000Y-85380000D02*
X117730000Y-83841000D01*
X117690000Y-88873000D02*
X117690000Y-87340000D01*
X117690000Y-85380000D02*
X117690000Y-83847000D01*
X117650000Y-88866000D02*
X117650000Y-87340000D01*
X117650000Y-85380000D02*
X117650000Y-83854000D01*
X117610000Y-88858000D02*
X117610000Y-87340000D01*
X117610000Y-85380000D02*
X117610000Y-83862000D01*
X117570000Y-88849000D02*
X117570000Y-87340000D01*
X117570000Y-85380000D02*
X117570000Y-83871000D01*
X117530000Y-88840000D02*
X117530000Y-87340000D01*
X117530000Y-85380000D02*
X117530000Y-83880000D01*
X117490000Y-88830000D02*
X117490000Y-87340000D01*
X117490000Y-85380000D02*
X117490000Y-83890000D01*
X117450000Y-88820000D02*
X117450000Y-87340000D01*
X117450000Y-85380000D02*
X117450000Y-83900000D01*
X117409000Y-88808000D02*
X117409000Y-87340000D01*
X117409000Y-85380000D02*
X117409000Y-83912000D01*
X117369000Y-88796000D02*
X117369000Y-87340000D01*
X117369000Y-85380000D02*
X117369000Y-83924000D01*
X117329000Y-88784000D02*
X117329000Y-87340000D01*
X117329000Y-85380000D02*
X117329000Y-83936000D01*
X117289000Y-88770000D02*
X117289000Y-87340000D01*
X117289000Y-85380000D02*
X117289000Y-83950000D01*
X117249000Y-88756000D02*
X117249000Y-87340000D01*
X117249000Y-85380000D02*
X117249000Y-83964000D01*
X117209000Y-88742000D02*
X117209000Y-87340000D01*
X117209000Y-85380000D02*
X117209000Y-83978000D01*
X117169000Y-88726000D02*
X117169000Y-87340000D01*
X117169000Y-85380000D02*
X117169000Y-83994000D01*
X117129000Y-88710000D02*
X117129000Y-87340000D01*
X117129000Y-85380000D02*
X117129000Y-84010000D01*
X117089000Y-88693000D02*
X117089000Y-87340000D01*
X117089000Y-85380000D02*
X117089000Y-84027000D01*
X117049000Y-88675000D02*
X117049000Y-87340000D01*
X117049000Y-85380000D02*
X117049000Y-84045000D01*
X117009000Y-88656000D02*
X117009000Y-87340000D01*
X117009000Y-85380000D02*
X117009000Y-84064000D01*
X116969000Y-88636000D02*
X116969000Y-87340000D01*
X116969000Y-85380000D02*
X116969000Y-84084000D01*
X116929000Y-88616000D02*
X116929000Y-87340000D01*
X116929000Y-85380000D02*
X116929000Y-84104000D01*
X116889000Y-88594000D02*
X116889000Y-87340000D01*
X116889000Y-85380000D02*
X116889000Y-84126000D01*
X116849000Y-88572000D02*
X116849000Y-87340000D01*
X116849000Y-85380000D02*
X116849000Y-84148000D01*
X116809000Y-88549000D02*
X116809000Y-87340000D01*
X116809000Y-85380000D02*
X116809000Y-84171000D01*
X116769000Y-88525000D02*
X116769000Y-87340000D01*
X116769000Y-85380000D02*
X116769000Y-84195000D01*
X116729000Y-88500000D02*
X116729000Y-87340000D01*
X116729000Y-85380000D02*
X116729000Y-84220000D01*
X116689000Y-88473000D02*
X116689000Y-87340000D01*
X116689000Y-85380000D02*
X116689000Y-84247000D01*
X116649000Y-88446000D02*
X116649000Y-87340000D01*
X116649000Y-85380000D02*
X116649000Y-84274000D01*
X116609000Y-88418000D02*
X116609000Y-87340000D01*
X116609000Y-85380000D02*
X116609000Y-84302000D01*
X116569000Y-88388000D02*
X116569000Y-87340000D01*
X116569000Y-85380000D02*
X116569000Y-84332000D01*
X116529000Y-88357000D02*
X116529000Y-87340000D01*
X116529000Y-85380000D02*
X116529000Y-84363000D01*
X116489000Y-88325000D02*
X116489000Y-87340000D01*
X116489000Y-85380000D02*
X116489000Y-84395000D01*
X116449000Y-88292000D02*
X116449000Y-87340000D01*
X116449000Y-85380000D02*
X116449000Y-84428000D01*
X116409000Y-88257000D02*
X116409000Y-87340000D01*
X116409000Y-85380000D02*
X116409000Y-84463000D01*
X116369000Y-88221000D02*
X116369000Y-87340000D01*
X116369000Y-85380000D02*
X116369000Y-84499000D01*
X116329000Y-88183000D02*
X116329000Y-87340000D01*
X116329000Y-85380000D02*
X116329000Y-84537000D01*
X116289000Y-88143000D02*
X116289000Y-87340000D01*
X116289000Y-85380000D02*
X116289000Y-84577000D01*
X116249000Y-88102000D02*
X116249000Y-87340000D01*
X116249000Y-85380000D02*
X116249000Y-84618000D01*
X116209000Y-88059000D02*
X116209000Y-87340000D01*
X116209000Y-85380000D02*
X116209000Y-84661000D01*
X116169000Y-88014000D02*
X116169000Y-87340000D01*
X116169000Y-85380000D02*
X116169000Y-84706000D01*
X116129000Y-87966000D02*
X116129000Y-87340000D01*
X116129000Y-85380000D02*
X116129000Y-84754000D01*
X116089000Y-87916000D02*
X116089000Y-87340000D01*
X116089000Y-85380000D02*
X116089000Y-84804000D01*
X116049000Y-87864000D02*
X116049000Y-87340000D01*
X116049000Y-85380000D02*
X116049000Y-84856000D01*
X116009000Y-87808000D02*
X116009000Y-87340000D01*
X116009000Y-85380000D02*
X116009000Y-84912000D01*
X115969000Y-87750000D02*
X115969000Y-87340000D01*
X115969000Y-85380000D02*
X115969000Y-84970000D01*
X115929000Y-87687000D02*
X115929000Y-87340000D01*
X115929000Y-85380000D02*
X115929000Y-85033000D01*
X115889000Y-87621000D02*
X115889000Y-85099000D01*
X115849000Y-87549000D02*
X115849000Y-85171000D01*
X115809000Y-87472000D02*
X115809000Y-85248000D01*
X115769000Y-87388000D02*
X115769000Y-85332000D01*
X115729000Y-87294000D02*
X115729000Y-85426000D01*
X115689000Y-87189000D02*
X115689000Y-85531000D01*
X115649000Y-87067000D02*
X115649000Y-85653000D01*
X115609000Y-86919000D02*
X115609000Y-85801000D01*
X115569000Y-86714000D02*
X115569000Y-86006000D01*
X121580000Y-86360000D02*
X120380000Y-86360000D01*
X120980000Y-87010000D02*
X120980000Y-85710000D01*
X120710000Y-111800000D02*
X115590000Y-111800000D01*
X120710000Y-109180000D02*
X115590000Y-109180000D01*
X120710000Y-111800000D02*
X120710000Y-111486000D01*
X120710000Y-109494000D02*
X120710000Y-109180000D01*
X115590000Y-111800000D02*
X115590000Y-111486000D01*
X115590000Y-109494000D02*
X115590000Y-109180000D01*
X121980000Y-119420000D02*
X116860000Y-119420000D01*
X121980000Y-116800000D02*
X116860000Y-116800000D01*
X121980000Y-119420000D02*
X121980000Y-119106000D01*
X121980000Y-117114000D02*
X121980000Y-116800000D01*
X116860000Y-119420000D02*
X116860000Y-119106000D01*
X116860000Y-117114000D02*
X116860000Y-116800000D01*
X137414278Y-119289723D02*
G75*
G03X142025580Y-119290000I2305722J1179723D01*
G01*
X137414278Y-116930277D02*
G75*
G02X142025580Y-116930000I2305722J-1179723D01*
G01*
X137414278Y-116930277D02*
G75*
G03X137414420Y-119290000I2305722J-1179723D01*
G01*
X139720000Y-120660000D02*
X139720000Y-115560000D01*
X139680000Y-120660000D02*
X139680000Y-115560000D01*
X139640000Y-120659000D02*
X139640000Y-115561000D01*
X139600000Y-120658000D02*
X139600000Y-115562000D01*
X139560000Y-120656000D02*
X139560000Y-115564000D01*
X139520000Y-120653000D02*
X139520000Y-115567000D01*
X139480000Y-120649000D02*
X139480000Y-115571000D01*
X139440000Y-120645000D02*
X139440000Y-119090000D01*
X139440000Y-117130000D02*
X139440000Y-115575000D01*
X139400000Y-120641000D02*
X139400000Y-119090000D01*
X139400000Y-117130000D02*
X139400000Y-115579000D01*
X139360000Y-120635000D02*
X139360000Y-119090000D01*
X139360000Y-117130000D02*
X139360000Y-115585000D01*
X139320000Y-120629000D02*
X139320000Y-119090000D01*
X139320000Y-117130000D02*
X139320000Y-115591000D01*
X139280000Y-120623000D02*
X139280000Y-119090000D01*
X139280000Y-117130000D02*
X139280000Y-115597000D01*
X139240000Y-120616000D02*
X139240000Y-119090000D01*
X139240000Y-117130000D02*
X139240000Y-115604000D01*
X139200000Y-120608000D02*
X139200000Y-119090000D01*
X139200000Y-117130000D02*
X139200000Y-115612000D01*
X139160000Y-120599000D02*
X139160000Y-119090000D01*
X139160000Y-117130000D02*
X139160000Y-115621000D01*
X139120000Y-120590000D02*
X139120000Y-119090000D01*
X139120000Y-117130000D02*
X139120000Y-115630000D01*
X139080000Y-120580000D02*
X139080000Y-119090000D01*
X139080000Y-117130000D02*
X139080000Y-115640000D01*
X139040000Y-120570000D02*
X139040000Y-119090000D01*
X139040000Y-117130000D02*
X139040000Y-115650000D01*
X138999000Y-120558000D02*
X138999000Y-119090000D01*
X138999000Y-117130000D02*
X138999000Y-115662000D01*
X138959000Y-120546000D02*
X138959000Y-119090000D01*
X138959000Y-117130000D02*
X138959000Y-115674000D01*
X138919000Y-120534000D02*
X138919000Y-119090000D01*
X138919000Y-117130000D02*
X138919000Y-115686000D01*
X138879000Y-120520000D02*
X138879000Y-119090000D01*
X138879000Y-117130000D02*
X138879000Y-115700000D01*
X138839000Y-120506000D02*
X138839000Y-119090000D01*
X138839000Y-117130000D02*
X138839000Y-115714000D01*
X138799000Y-120492000D02*
X138799000Y-119090000D01*
X138799000Y-117130000D02*
X138799000Y-115728000D01*
X138759000Y-120476000D02*
X138759000Y-119090000D01*
X138759000Y-117130000D02*
X138759000Y-115744000D01*
X138719000Y-120460000D02*
X138719000Y-119090000D01*
X138719000Y-117130000D02*
X138719000Y-115760000D01*
X138679000Y-120443000D02*
X138679000Y-119090000D01*
X138679000Y-117130000D02*
X138679000Y-115777000D01*
X138639000Y-120425000D02*
X138639000Y-119090000D01*
X138639000Y-117130000D02*
X138639000Y-115795000D01*
X138599000Y-120406000D02*
X138599000Y-119090000D01*
X138599000Y-117130000D02*
X138599000Y-115814000D01*
X138559000Y-120386000D02*
X138559000Y-119090000D01*
X138559000Y-117130000D02*
X138559000Y-115834000D01*
X138519000Y-120366000D02*
X138519000Y-119090000D01*
X138519000Y-117130000D02*
X138519000Y-115854000D01*
X138479000Y-120344000D02*
X138479000Y-119090000D01*
X138479000Y-117130000D02*
X138479000Y-115876000D01*
X138439000Y-120322000D02*
X138439000Y-119090000D01*
X138439000Y-117130000D02*
X138439000Y-115898000D01*
X138399000Y-120299000D02*
X138399000Y-119090000D01*
X138399000Y-117130000D02*
X138399000Y-115921000D01*
X138359000Y-120275000D02*
X138359000Y-119090000D01*
X138359000Y-117130000D02*
X138359000Y-115945000D01*
X138319000Y-120250000D02*
X138319000Y-119090000D01*
X138319000Y-117130000D02*
X138319000Y-115970000D01*
X138279000Y-120223000D02*
X138279000Y-119090000D01*
X138279000Y-117130000D02*
X138279000Y-115997000D01*
X138239000Y-120196000D02*
X138239000Y-119090000D01*
X138239000Y-117130000D02*
X138239000Y-116024000D01*
X138199000Y-120168000D02*
X138199000Y-119090000D01*
X138199000Y-117130000D02*
X138199000Y-116052000D01*
X138159000Y-120138000D02*
X138159000Y-119090000D01*
X138159000Y-117130000D02*
X138159000Y-116082000D01*
X138119000Y-120107000D02*
X138119000Y-119090000D01*
X138119000Y-117130000D02*
X138119000Y-116113000D01*
X138079000Y-120075000D02*
X138079000Y-119090000D01*
X138079000Y-117130000D02*
X138079000Y-116145000D01*
X138039000Y-120042000D02*
X138039000Y-119090000D01*
X138039000Y-117130000D02*
X138039000Y-116178000D01*
X137999000Y-120007000D02*
X137999000Y-119090000D01*
X137999000Y-117130000D02*
X137999000Y-116213000D01*
X137959000Y-119971000D02*
X137959000Y-119090000D01*
X137959000Y-117130000D02*
X137959000Y-116249000D01*
X137919000Y-119933000D02*
X137919000Y-119090000D01*
X137919000Y-117130000D02*
X137919000Y-116287000D01*
X137879000Y-119893000D02*
X137879000Y-119090000D01*
X137879000Y-117130000D02*
X137879000Y-116327000D01*
X137839000Y-119852000D02*
X137839000Y-119090000D01*
X137839000Y-117130000D02*
X137839000Y-116368000D01*
X137799000Y-119809000D02*
X137799000Y-119090000D01*
X137799000Y-117130000D02*
X137799000Y-116411000D01*
X137759000Y-119764000D02*
X137759000Y-119090000D01*
X137759000Y-117130000D02*
X137759000Y-116456000D01*
X137719000Y-119716000D02*
X137719000Y-119090000D01*
X137719000Y-117130000D02*
X137719000Y-116504000D01*
X137679000Y-119666000D02*
X137679000Y-119090000D01*
X137679000Y-117130000D02*
X137679000Y-116554000D01*
X137639000Y-119614000D02*
X137639000Y-119090000D01*
X137639000Y-117130000D02*
X137639000Y-116606000D01*
X137599000Y-119558000D02*
X137599000Y-119090000D01*
X137599000Y-117130000D02*
X137599000Y-116662000D01*
X137559000Y-119500000D02*
X137559000Y-119090000D01*
X137559000Y-117130000D02*
X137559000Y-116720000D01*
X137519000Y-119437000D02*
X137519000Y-119090000D01*
X137519000Y-117130000D02*
X137519000Y-116783000D01*
X137479000Y-119371000D02*
X137479000Y-116849000D01*
X137439000Y-119299000D02*
X137439000Y-116921000D01*
X137399000Y-119222000D02*
X137399000Y-116998000D01*
X137359000Y-119138000D02*
X137359000Y-117082000D01*
X137319000Y-119044000D02*
X137319000Y-117176000D01*
X137279000Y-118939000D02*
X137279000Y-117281000D01*
X137239000Y-118817000D02*
X137239000Y-117403000D01*
X137199000Y-118669000D02*
X137199000Y-117551000D01*
X137159000Y-118464000D02*
X137159000Y-117756000D01*
X143170000Y-118110000D02*
X141970000Y-118110000D01*
X142570000Y-118760000D02*
X142570000Y-117460000D01*
X132140000Y-119420000D02*
X127020000Y-119420000D01*
X132140000Y-116800000D02*
X127020000Y-116800000D01*
X132140000Y-119420000D02*
X132140000Y-119106000D01*
X132140000Y-117114000D02*
X132140000Y-116800000D01*
X127020000Y-119420000D02*
X127020000Y-119106000D01*
X127020000Y-117114000D02*
X127020000Y-116800000D01*
X119320000Y-104100000D02*
X124440000Y-104100000D01*
X119320000Y-106720000D02*
X124440000Y-106720000D01*
X119320000Y-104100000D02*
X119320000Y-104414000D01*
X119320000Y-106406000D02*
X119320000Y-106720000D01*
X124440000Y-104100000D02*
X124440000Y-104414000D01*
X124440000Y-106406000D02*
X124440000Y-106720000D01*
X127090277Y-73914278D02*
G75*
G03X127090000Y-78525580I1179723J-2305722D01*
G01*
X129449723Y-73914278D02*
G75*
G02X129450000Y-78525580I-1179723J-2305722D01*
G01*
X129449723Y-73914278D02*
G75*
G03X127090000Y-73914420I-1179723J-2305722D01*
G01*
X125720000Y-76220000D02*
X130820000Y-76220000D01*
X125720000Y-76180000D02*
X130820000Y-76180000D01*
X125721000Y-76140000D02*
X130819000Y-76140000D01*
X125722000Y-76100000D02*
X130818000Y-76100000D01*
X125724000Y-76060000D02*
X130816000Y-76060000D01*
X125727000Y-76020000D02*
X130813000Y-76020000D01*
X125731000Y-75980000D02*
X130809000Y-75980000D01*
X125735000Y-75940000D02*
X127290000Y-75940000D01*
X129250000Y-75940000D02*
X130805000Y-75940000D01*
X125739000Y-75900000D02*
X127290000Y-75900000D01*
X129250000Y-75900000D02*
X130801000Y-75900000D01*
X125745000Y-75860000D02*
X127290000Y-75860000D01*
X129250000Y-75860000D02*
X130795000Y-75860000D01*
X125751000Y-75820000D02*
X127290000Y-75820000D01*
X129250000Y-75820000D02*
X130789000Y-75820000D01*
X125757000Y-75780000D02*
X127290000Y-75780000D01*
X129250000Y-75780000D02*
X130783000Y-75780000D01*
X125764000Y-75740000D02*
X127290000Y-75740000D01*
X129250000Y-75740000D02*
X130776000Y-75740000D01*
X125772000Y-75700000D02*
X127290000Y-75700000D01*
X129250000Y-75700000D02*
X130768000Y-75700000D01*
X125781000Y-75660000D02*
X127290000Y-75660000D01*
X129250000Y-75660000D02*
X130759000Y-75660000D01*
X125790000Y-75620000D02*
X127290000Y-75620000D01*
X129250000Y-75620000D02*
X130750000Y-75620000D01*
X125800000Y-75580000D02*
X127290000Y-75580000D01*
X129250000Y-75580000D02*
X130740000Y-75580000D01*
X125810000Y-75540000D02*
X127290000Y-75540000D01*
X129250000Y-75540000D02*
X130730000Y-75540000D01*
X125822000Y-75499000D02*
X127290000Y-75499000D01*
X129250000Y-75499000D02*
X130718000Y-75499000D01*
X125834000Y-75459000D02*
X127290000Y-75459000D01*
X129250000Y-75459000D02*
X130706000Y-75459000D01*
X125846000Y-75419000D02*
X127290000Y-75419000D01*
X129250000Y-75419000D02*
X130694000Y-75419000D01*
X125860000Y-75379000D02*
X127290000Y-75379000D01*
X129250000Y-75379000D02*
X130680000Y-75379000D01*
X125874000Y-75339000D02*
X127290000Y-75339000D01*
X129250000Y-75339000D02*
X130666000Y-75339000D01*
X125888000Y-75299000D02*
X127290000Y-75299000D01*
X129250000Y-75299000D02*
X130652000Y-75299000D01*
X125904000Y-75259000D02*
X127290000Y-75259000D01*
X129250000Y-75259000D02*
X130636000Y-75259000D01*
X125920000Y-75219000D02*
X127290000Y-75219000D01*
X129250000Y-75219000D02*
X130620000Y-75219000D01*
X125937000Y-75179000D02*
X127290000Y-75179000D01*
X129250000Y-75179000D02*
X130603000Y-75179000D01*
X125955000Y-75139000D02*
X127290000Y-75139000D01*
X129250000Y-75139000D02*
X130585000Y-75139000D01*
X125974000Y-75099000D02*
X127290000Y-75099000D01*
X129250000Y-75099000D02*
X130566000Y-75099000D01*
X125994000Y-75059000D02*
X127290000Y-75059000D01*
X129250000Y-75059000D02*
X130546000Y-75059000D01*
X126014000Y-75019000D02*
X127290000Y-75019000D01*
X129250000Y-75019000D02*
X130526000Y-75019000D01*
X126036000Y-74979000D02*
X127290000Y-74979000D01*
X129250000Y-74979000D02*
X130504000Y-74979000D01*
X126058000Y-74939000D02*
X127290000Y-74939000D01*
X129250000Y-74939000D02*
X130482000Y-74939000D01*
X126081000Y-74899000D02*
X127290000Y-74899000D01*
X129250000Y-74899000D02*
X130459000Y-74899000D01*
X126105000Y-74859000D02*
X127290000Y-74859000D01*
X129250000Y-74859000D02*
X130435000Y-74859000D01*
X126130000Y-74819000D02*
X127290000Y-74819000D01*
X129250000Y-74819000D02*
X130410000Y-74819000D01*
X126157000Y-74779000D02*
X127290000Y-74779000D01*
X129250000Y-74779000D02*
X130383000Y-74779000D01*
X126184000Y-74739000D02*
X127290000Y-74739000D01*
X129250000Y-74739000D02*
X130356000Y-74739000D01*
X126212000Y-74699000D02*
X127290000Y-74699000D01*
X129250000Y-74699000D02*
X130328000Y-74699000D01*
X126242000Y-74659000D02*
X127290000Y-74659000D01*
X129250000Y-74659000D02*
X130298000Y-74659000D01*
X126273000Y-74619000D02*
X127290000Y-74619000D01*
X129250000Y-74619000D02*
X130267000Y-74619000D01*
X126305000Y-74579000D02*
X127290000Y-74579000D01*
X129250000Y-74579000D02*
X130235000Y-74579000D01*
X126338000Y-74539000D02*
X127290000Y-74539000D01*
X129250000Y-74539000D02*
X130202000Y-74539000D01*
X126373000Y-74499000D02*
X127290000Y-74499000D01*
X129250000Y-74499000D02*
X130167000Y-74499000D01*
X126409000Y-74459000D02*
X127290000Y-74459000D01*
X129250000Y-74459000D02*
X130131000Y-74459000D01*
X126447000Y-74419000D02*
X127290000Y-74419000D01*
X129250000Y-74419000D02*
X130093000Y-74419000D01*
X126487000Y-74379000D02*
X127290000Y-74379000D01*
X129250000Y-74379000D02*
X130053000Y-74379000D01*
X126528000Y-74339000D02*
X127290000Y-74339000D01*
X129250000Y-74339000D02*
X130012000Y-74339000D01*
X126571000Y-74299000D02*
X127290000Y-74299000D01*
X129250000Y-74299000D02*
X129969000Y-74299000D01*
X126616000Y-74259000D02*
X127290000Y-74259000D01*
X129250000Y-74259000D02*
X129924000Y-74259000D01*
X126664000Y-74219000D02*
X127290000Y-74219000D01*
X129250000Y-74219000D02*
X129876000Y-74219000D01*
X126714000Y-74179000D02*
X127290000Y-74179000D01*
X129250000Y-74179000D02*
X129826000Y-74179000D01*
X126766000Y-74139000D02*
X127290000Y-74139000D01*
X129250000Y-74139000D02*
X129774000Y-74139000D01*
X126822000Y-74099000D02*
X127290000Y-74099000D01*
X129250000Y-74099000D02*
X129718000Y-74099000D01*
X126880000Y-74059000D02*
X127290000Y-74059000D01*
X129250000Y-74059000D02*
X129660000Y-74059000D01*
X126943000Y-74019000D02*
X127290000Y-74019000D01*
X129250000Y-74019000D02*
X129597000Y-74019000D01*
X127009000Y-73979000D02*
X129531000Y-73979000D01*
X127081000Y-73939000D02*
X129459000Y-73939000D01*
X127158000Y-73899000D02*
X129382000Y-73899000D01*
X127242000Y-73859000D02*
X129298000Y-73859000D01*
X127336000Y-73819000D02*
X129204000Y-73819000D01*
X127441000Y-73779000D02*
X129099000Y-73779000D01*
X127563000Y-73739000D02*
X128977000Y-73739000D01*
X127711000Y-73699000D02*
X128829000Y-73699000D01*
X127916000Y-73659000D02*
X128624000Y-73659000D01*
X128270000Y-79670000D02*
X128270000Y-78470000D01*
X127620000Y-79070000D02*
X128920000Y-79070000D01*
X116900000Y-100370000D02*
X111780000Y-100370000D01*
X116900000Y-97750000D02*
X111780000Y-97750000D01*
X116900000Y-100370000D02*
X116900000Y-100056000D01*
X116900000Y-98064000D02*
X116900000Y-97750000D01*
X111780000Y-100370000D02*
X111780000Y-100056000D01*
X111780000Y-98064000D02*
X111780000Y-97750000D01*
X133290000Y-63460000D02*
X138410000Y-63460000D01*
X133290000Y-66080000D02*
X138410000Y-66080000D01*
X133290000Y-63460000D02*
X133290000Y-63774000D01*
X133290000Y-65766000D02*
X133290000Y-66080000D01*
X138410000Y-63460000D02*
X138410000Y-63774000D01*
X138410000Y-65766000D02*
X138410000Y-66080000D01*
X133290000Y-59650000D02*
X138410000Y-59650000D01*
X133290000Y-62270000D02*
X138410000Y-62270000D01*
X133290000Y-59650000D02*
X133290000Y-59964000D01*
X133290000Y-61956000D02*
X133290000Y-62270000D01*
X138410000Y-59650000D02*
X138410000Y-59964000D01*
X138410000Y-61956000D02*
X138410000Y-62270000D01*
X108204278Y-54519723D02*
G75*
G03X112815580Y-54520000I2305722J1179723D01*
G01*
X108204278Y-52160277D02*
G75*
G02X112815580Y-52160000I2305722J-1179723D01*
G01*
X108204278Y-52160277D02*
G75*
G03X108204420Y-54520000I2305722J-1179723D01*
G01*
X110510000Y-55890000D02*
X110510000Y-50790000D01*
X110470000Y-55890000D02*
X110470000Y-50790000D01*
X110430000Y-55889000D02*
X110430000Y-50791000D01*
X110390000Y-55888000D02*
X110390000Y-50792000D01*
X110350000Y-55886000D02*
X110350000Y-50794000D01*
X110310000Y-55883000D02*
X110310000Y-50797000D01*
X110270000Y-55879000D02*
X110270000Y-50801000D01*
X110230000Y-55875000D02*
X110230000Y-54320000D01*
X110230000Y-52360000D02*
X110230000Y-50805000D01*
X110190000Y-55871000D02*
X110190000Y-54320000D01*
X110190000Y-52360000D02*
X110190000Y-50809000D01*
X110150000Y-55865000D02*
X110150000Y-54320000D01*
X110150000Y-52360000D02*
X110150000Y-50815000D01*
X110110000Y-55859000D02*
X110110000Y-54320000D01*
X110110000Y-52360000D02*
X110110000Y-50821000D01*
X110070000Y-55853000D02*
X110070000Y-54320000D01*
X110070000Y-52360000D02*
X110070000Y-50827000D01*
X110030000Y-55846000D02*
X110030000Y-54320000D01*
X110030000Y-52360000D02*
X110030000Y-50834000D01*
X109990000Y-55838000D02*
X109990000Y-54320000D01*
X109990000Y-52360000D02*
X109990000Y-50842000D01*
X109950000Y-55829000D02*
X109950000Y-54320000D01*
X109950000Y-52360000D02*
X109950000Y-50851000D01*
X109910000Y-55820000D02*
X109910000Y-54320000D01*
X109910000Y-52360000D02*
X109910000Y-50860000D01*
X109870000Y-55810000D02*
X109870000Y-54320000D01*
X109870000Y-52360000D02*
X109870000Y-50870000D01*
X109830000Y-55800000D02*
X109830000Y-54320000D01*
X109830000Y-52360000D02*
X109830000Y-50880000D01*
X109789000Y-55788000D02*
X109789000Y-54320000D01*
X109789000Y-52360000D02*
X109789000Y-50892000D01*
X109749000Y-55776000D02*
X109749000Y-54320000D01*
X109749000Y-52360000D02*
X109749000Y-50904000D01*
X109709000Y-55764000D02*
X109709000Y-54320000D01*
X109709000Y-52360000D02*
X109709000Y-50916000D01*
X109669000Y-55750000D02*
X109669000Y-54320000D01*
X109669000Y-52360000D02*
X109669000Y-50930000D01*
X109629000Y-55736000D02*
X109629000Y-54320000D01*
X109629000Y-52360000D02*
X109629000Y-50944000D01*
X109589000Y-55722000D02*
X109589000Y-54320000D01*
X109589000Y-52360000D02*
X109589000Y-50958000D01*
X109549000Y-55706000D02*
X109549000Y-54320000D01*
X109549000Y-52360000D02*
X109549000Y-50974000D01*
X109509000Y-55690000D02*
X109509000Y-54320000D01*
X109509000Y-52360000D02*
X109509000Y-50990000D01*
X109469000Y-55673000D02*
X109469000Y-54320000D01*
X109469000Y-52360000D02*
X109469000Y-51007000D01*
X109429000Y-55655000D02*
X109429000Y-54320000D01*
X109429000Y-52360000D02*
X109429000Y-51025000D01*
X109389000Y-55636000D02*
X109389000Y-54320000D01*
X109389000Y-52360000D02*
X109389000Y-51044000D01*
X109349000Y-55616000D02*
X109349000Y-54320000D01*
X109349000Y-52360000D02*
X109349000Y-51064000D01*
X109309000Y-55596000D02*
X109309000Y-54320000D01*
X109309000Y-52360000D02*
X109309000Y-51084000D01*
X109269000Y-55574000D02*
X109269000Y-54320000D01*
X109269000Y-52360000D02*
X109269000Y-51106000D01*
X109229000Y-55552000D02*
X109229000Y-54320000D01*
X109229000Y-52360000D02*
X109229000Y-51128000D01*
X109189000Y-55529000D02*
X109189000Y-54320000D01*
X109189000Y-52360000D02*
X109189000Y-51151000D01*
X109149000Y-55505000D02*
X109149000Y-54320000D01*
X109149000Y-52360000D02*
X109149000Y-51175000D01*
X109109000Y-55480000D02*
X109109000Y-54320000D01*
X109109000Y-52360000D02*
X109109000Y-51200000D01*
X109069000Y-55453000D02*
X109069000Y-54320000D01*
X109069000Y-52360000D02*
X109069000Y-51227000D01*
X109029000Y-55426000D02*
X109029000Y-54320000D01*
X109029000Y-52360000D02*
X109029000Y-51254000D01*
X108989000Y-55398000D02*
X108989000Y-54320000D01*
X108989000Y-52360000D02*
X108989000Y-51282000D01*
X108949000Y-55368000D02*
X108949000Y-54320000D01*
X108949000Y-52360000D02*
X108949000Y-51312000D01*
X108909000Y-55337000D02*
X108909000Y-54320000D01*
X108909000Y-52360000D02*
X108909000Y-51343000D01*
X108869000Y-55305000D02*
X108869000Y-54320000D01*
X108869000Y-52360000D02*
X108869000Y-51375000D01*
X108829000Y-55272000D02*
X108829000Y-54320000D01*
X108829000Y-52360000D02*
X108829000Y-51408000D01*
X108789000Y-55237000D02*
X108789000Y-54320000D01*
X108789000Y-52360000D02*
X108789000Y-51443000D01*
X108749000Y-55201000D02*
X108749000Y-54320000D01*
X108749000Y-52360000D02*
X108749000Y-51479000D01*
X108709000Y-55163000D02*
X108709000Y-54320000D01*
X108709000Y-52360000D02*
X108709000Y-51517000D01*
X108669000Y-55123000D02*
X108669000Y-54320000D01*
X108669000Y-52360000D02*
X108669000Y-51557000D01*
X108629000Y-55082000D02*
X108629000Y-54320000D01*
X108629000Y-52360000D02*
X108629000Y-51598000D01*
X108589000Y-55039000D02*
X108589000Y-54320000D01*
X108589000Y-52360000D02*
X108589000Y-51641000D01*
X108549000Y-54994000D02*
X108549000Y-54320000D01*
X108549000Y-52360000D02*
X108549000Y-51686000D01*
X108509000Y-54946000D02*
X108509000Y-54320000D01*
X108509000Y-52360000D02*
X108509000Y-51734000D01*
X108469000Y-54896000D02*
X108469000Y-54320000D01*
X108469000Y-52360000D02*
X108469000Y-51784000D01*
X108429000Y-54844000D02*
X108429000Y-54320000D01*
X108429000Y-52360000D02*
X108429000Y-51836000D01*
X108389000Y-54788000D02*
X108389000Y-54320000D01*
X108389000Y-52360000D02*
X108389000Y-51892000D01*
X108349000Y-54730000D02*
X108349000Y-54320000D01*
X108349000Y-52360000D02*
X108349000Y-51950000D01*
X108309000Y-54667000D02*
X108309000Y-54320000D01*
X108309000Y-52360000D02*
X108309000Y-52013000D01*
X108269000Y-54601000D02*
X108269000Y-52079000D01*
X108229000Y-54529000D02*
X108229000Y-52151000D01*
X108189000Y-54452000D02*
X108189000Y-52228000D01*
X108149000Y-54368000D02*
X108149000Y-52312000D01*
X108109000Y-54274000D02*
X108109000Y-52406000D01*
X108069000Y-54169000D02*
X108069000Y-52511000D01*
X108029000Y-54047000D02*
X108029000Y-52633000D01*
X107989000Y-53899000D02*
X107989000Y-52781000D01*
X107949000Y-53694000D02*
X107949000Y-52986000D01*
X113960000Y-53340000D02*
X112760000Y-53340000D01*
X113360000Y-53990000D02*
X113360000Y-52690000D01*
X91694278Y-121829723D02*
G75*
G03X96305580Y-121830000I2305722J1179723D01*
G01*
X91694278Y-119470277D02*
G75*
G02X96305580Y-119470000I2305722J-1179723D01*
G01*
X91694278Y-119470277D02*
G75*
G03X91694420Y-121830000I2305722J-1179723D01*
G01*
X94000000Y-123200000D02*
X94000000Y-118100000D01*
X93960000Y-123200000D02*
X93960000Y-118100000D01*
X93920000Y-123199000D02*
X93920000Y-118101000D01*
X93880000Y-123198000D02*
X93880000Y-118102000D01*
X93840000Y-123196000D02*
X93840000Y-118104000D01*
X93800000Y-123193000D02*
X93800000Y-118107000D01*
X93760000Y-123189000D02*
X93760000Y-118111000D01*
X93720000Y-123185000D02*
X93720000Y-121630000D01*
X93720000Y-119670000D02*
X93720000Y-118115000D01*
X93680000Y-123181000D02*
X93680000Y-121630000D01*
X93680000Y-119670000D02*
X93680000Y-118119000D01*
X93640000Y-123175000D02*
X93640000Y-121630000D01*
X93640000Y-119670000D02*
X93640000Y-118125000D01*
X93600000Y-123169000D02*
X93600000Y-121630000D01*
X93600000Y-119670000D02*
X93600000Y-118131000D01*
X93560000Y-123163000D02*
X93560000Y-121630000D01*
X93560000Y-119670000D02*
X93560000Y-118137000D01*
X93520000Y-123156000D02*
X93520000Y-121630000D01*
X93520000Y-119670000D02*
X93520000Y-118144000D01*
X93480000Y-123148000D02*
X93480000Y-121630000D01*
X93480000Y-119670000D02*
X93480000Y-118152000D01*
X93440000Y-123139000D02*
X93440000Y-121630000D01*
X93440000Y-119670000D02*
X93440000Y-118161000D01*
X93400000Y-123130000D02*
X93400000Y-121630000D01*
X93400000Y-119670000D02*
X93400000Y-118170000D01*
X93360000Y-123120000D02*
X93360000Y-121630000D01*
X93360000Y-119670000D02*
X93360000Y-118180000D01*
X93320000Y-123110000D02*
X93320000Y-121630000D01*
X93320000Y-119670000D02*
X93320000Y-118190000D01*
X93279000Y-123098000D02*
X93279000Y-121630000D01*
X93279000Y-119670000D02*
X93279000Y-118202000D01*
X93239000Y-123086000D02*
X93239000Y-121630000D01*
X93239000Y-119670000D02*
X93239000Y-118214000D01*
X93199000Y-123074000D02*
X93199000Y-121630000D01*
X93199000Y-119670000D02*
X93199000Y-118226000D01*
X93159000Y-123060000D02*
X93159000Y-121630000D01*
X93159000Y-119670000D02*
X93159000Y-118240000D01*
X93119000Y-123046000D02*
X93119000Y-121630000D01*
X93119000Y-119670000D02*
X93119000Y-118254000D01*
X93079000Y-123032000D02*
X93079000Y-121630000D01*
X93079000Y-119670000D02*
X93079000Y-118268000D01*
X93039000Y-123016000D02*
X93039000Y-121630000D01*
X93039000Y-119670000D02*
X93039000Y-118284000D01*
X92999000Y-123000000D02*
X92999000Y-121630000D01*
X92999000Y-119670000D02*
X92999000Y-118300000D01*
X92959000Y-122983000D02*
X92959000Y-121630000D01*
X92959000Y-119670000D02*
X92959000Y-118317000D01*
X92919000Y-122965000D02*
X92919000Y-121630000D01*
X92919000Y-119670000D02*
X92919000Y-118335000D01*
X92879000Y-122946000D02*
X92879000Y-121630000D01*
X92879000Y-119670000D02*
X92879000Y-118354000D01*
X92839000Y-122926000D02*
X92839000Y-121630000D01*
X92839000Y-119670000D02*
X92839000Y-118374000D01*
X92799000Y-122906000D02*
X92799000Y-121630000D01*
X92799000Y-119670000D02*
X92799000Y-118394000D01*
X92759000Y-122884000D02*
X92759000Y-121630000D01*
X92759000Y-119670000D02*
X92759000Y-118416000D01*
X92719000Y-122862000D02*
X92719000Y-121630000D01*
X92719000Y-119670000D02*
X92719000Y-118438000D01*
X92679000Y-122839000D02*
X92679000Y-121630000D01*
X92679000Y-119670000D02*
X92679000Y-118461000D01*
X92639000Y-122815000D02*
X92639000Y-121630000D01*
X92639000Y-119670000D02*
X92639000Y-118485000D01*
X92599000Y-122790000D02*
X92599000Y-121630000D01*
X92599000Y-119670000D02*
X92599000Y-118510000D01*
X92559000Y-122763000D02*
X92559000Y-121630000D01*
X92559000Y-119670000D02*
X92559000Y-118537000D01*
X92519000Y-122736000D02*
X92519000Y-121630000D01*
X92519000Y-119670000D02*
X92519000Y-118564000D01*
X92479000Y-122708000D02*
X92479000Y-121630000D01*
X92479000Y-119670000D02*
X92479000Y-118592000D01*
X92439000Y-122678000D02*
X92439000Y-121630000D01*
X92439000Y-119670000D02*
X92439000Y-118622000D01*
X92399000Y-122647000D02*
X92399000Y-121630000D01*
X92399000Y-119670000D02*
X92399000Y-118653000D01*
X92359000Y-122615000D02*
X92359000Y-121630000D01*
X92359000Y-119670000D02*
X92359000Y-118685000D01*
X92319000Y-122582000D02*
X92319000Y-121630000D01*
X92319000Y-119670000D02*
X92319000Y-118718000D01*
X92279000Y-122547000D02*
X92279000Y-121630000D01*
X92279000Y-119670000D02*
X92279000Y-118753000D01*
X92239000Y-122511000D02*
X92239000Y-121630000D01*
X92239000Y-119670000D02*
X92239000Y-118789000D01*
X92199000Y-122473000D02*
X92199000Y-121630000D01*
X92199000Y-119670000D02*
X92199000Y-118827000D01*
X92159000Y-122433000D02*
X92159000Y-121630000D01*
X92159000Y-119670000D02*
X92159000Y-118867000D01*
X92119000Y-122392000D02*
X92119000Y-121630000D01*
X92119000Y-119670000D02*
X92119000Y-118908000D01*
X92079000Y-122349000D02*
X92079000Y-121630000D01*
X92079000Y-119670000D02*
X92079000Y-118951000D01*
X92039000Y-122304000D02*
X92039000Y-121630000D01*
X92039000Y-119670000D02*
X92039000Y-118996000D01*
X91999000Y-122256000D02*
X91999000Y-121630000D01*
X91999000Y-119670000D02*
X91999000Y-119044000D01*
X91959000Y-122206000D02*
X91959000Y-121630000D01*
X91959000Y-119670000D02*
X91959000Y-119094000D01*
X91919000Y-122154000D02*
X91919000Y-121630000D01*
X91919000Y-119670000D02*
X91919000Y-119146000D01*
X91879000Y-122098000D02*
X91879000Y-121630000D01*
X91879000Y-119670000D02*
X91879000Y-119202000D01*
X91839000Y-122040000D02*
X91839000Y-121630000D01*
X91839000Y-119670000D02*
X91839000Y-119260000D01*
X91799000Y-121977000D02*
X91799000Y-121630000D01*
X91799000Y-119670000D02*
X91799000Y-119323000D01*
X91759000Y-121911000D02*
X91759000Y-119389000D01*
X91719000Y-121839000D02*
X91719000Y-119461000D01*
X91679000Y-121762000D02*
X91679000Y-119538000D01*
X91639000Y-121678000D02*
X91639000Y-119622000D01*
X91599000Y-121584000D02*
X91599000Y-119716000D01*
X91559000Y-121479000D02*
X91559000Y-119821000D01*
X91519000Y-121357000D02*
X91519000Y-119943000D01*
X91479000Y-121209000D02*
X91479000Y-120091000D01*
X91439000Y-121004000D02*
X91439000Y-120296000D01*
X97450000Y-120650000D02*
X96250000Y-120650000D01*
X96850000Y-121300000D02*
X96850000Y-120000000D01*
D14*
X102131905Y-110942381D02*
X102131905Y-109942381D01*
X102370000Y-109942381D01*
X102512858Y-109990000D01*
X102608096Y-110085238D01*
X102655715Y-110180476D01*
X102703334Y-110370952D01*
X102703334Y-110513810D01*
X102655715Y-110704286D01*
X102608096Y-110799524D01*
X102512858Y-110894762D01*
X102370000Y-110942381D01*
X102131905Y-110942381D01*
X103655715Y-110942381D02*
X103084286Y-110942381D01*
X103370000Y-110942381D02*
X103370000Y-109942381D01*
X103274762Y-110085238D01*
X103179524Y-110180476D01*
X103084286Y-110228095D01*
X119911905Y-76652381D02*
X119911905Y-75652381D01*
X120150000Y-75652381D01*
X120292858Y-75700000D01*
X120388096Y-75795238D01*
X120435715Y-75890476D01*
X120483334Y-76080952D01*
X120483334Y-76223810D01*
X120435715Y-76414286D01*
X120388096Y-76509524D01*
X120292858Y-76604762D01*
X120150000Y-76652381D01*
X119911905Y-76652381D01*
X120864286Y-75747619D02*
X120911905Y-75700000D01*
X121007143Y-75652381D01*
X121245239Y-75652381D01*
X121340477Y-75700000D01*
X121388096Y-75747619D01*
X121435715Y-75842857D01*
X121435715Y-75938095D01*
X121388096Y-76080952D01*
X120816667Y-76652381D01*
X121435715Y-76652381D01*
X119911905Y-80462381D02*
X119911905Y-79462381D01*
X120150000Y-79462381D01*
X120292858Y-79510000D01*
X120388096Y-79605238D01*
X120435715Y-79700476D01*
X120483334Y-79890952D01*
X120483334Y-80033810D01*
X120435715Y-80224286D01*
X120388096Y-80319524D01*
X120292858Y-80414762D01*
X120150000Y-80462381D01*
X119911905Y-80462381D01*
X120816667Y-79462381D02*
X121435715Y-79462381D01*
X121102381Y-79843333D01*
X121245239Y-79843333D01*
X121340477Y-79890952D01*
X121388096Y-79938571D01*
X121435715Y-80033810D01*
X121435715Y-80271905D01*
X121388096Y-80367143D01*
X121340477Y-80414762D01*
X121245239Y-80462381D01*
X120959524Y-80462381D01*
X120864286Y-80414762D01*
X120816667Y-80367143D01*
X119911905Y-69032381D02*
X119911905Y-68032381D01*
X120150000Y-68032381D01*
X120292858Y-68080000D01*
X120388096Y-68175238D01*
X120435715Y-68270476D01*
X120483334Y-68460952D01*
X120483334Y-68603810D01*
X120435715Y-68794286D01*
X120388096Y-68889524D01*
X120292858Y-68984762D01*
X120150000Y-69032381D01*
X119911905Y-69032381D01*
X121340477Y-68365714D02*
X121340477Y-69032381D01*
X121102381Y-67984762D02*
X120864286Y-68699048D01*
X121483334Y-68699048D01*
X119911905Y-72842381D02*
X119911905Y-71842381D01*
X120150000Y-71842381D01*
X120292858Y-71890000D01*
X120388096Y-71985238D01*
X120435715Y-72080476D01*
X120483334Y-72270952D01*
X120483334Y-72413810D01*
X120435715Y-72604286D01*
X120388096Y-72699524D01*
X120292858Y-72794762D01*
X120150000Y-72842381D01*
X119911905Y-72842381D01*
X121388096Y-71842381D02*
X120911905Y-71842381D01*
X120864286Y-72318571D01*
X120911905Y-72270952D01*
X121007143Y-72223333D01*
X121245239Y-72223333D01*
X121340477Y-72270952D01*
X121388096Y-72318571D01*
X121435715Y-72413810D01*
X121435715Y-72651905D01*
X121388096Y-72747143D01*
X121340477Y-72794762D01*
X121245239Y-72842381D01*
X121007143Y-72842381D01*
X120911905Y-72794762D01*
X120864286Y-72747143D01*
X130071905Y-86812381D02*
X130071905Y-85812381D01*
X130310000Y-85812381D01*
X130452858Y-85860000D01*
X130548096Y-85955238D01*
X130595715Y-86050476D01*
X130643334Y-86240952D01*
X130643334Y-86383810D01*
X130595715Y-86574286D01*
X130548096Y-86669524D01*
X130452858Y-86764762D01*
X130310000Y-86812381D01*
X130071905Y-86812381D01*
X131500477Y-85812381D02*
X131310000Y-85812381D01*
X131214762Y-85860000D01*
X131167143Y-85907619D01*
X131071905Y-86050476D01*
X131024286Y-86240952D01*
X131024286Y-86621905D01*
X131071905Y-86717143D01*
X131119524Y-86764762D01*
X131214762Y-86812381D01*
X131405239Y-86812381D01*
X131500477Y-86764762D01*
X131548096Y-86717143D01*
X131595715Y-86621905D01*
X131595715Y-86383810D01*
X131548096Y-86288571D01*
X131500477Y-86240952D01*
X131405239Y-86193333D01*
X131214762Y-86193333D01*
X131119524Y-86240952D01*
X131071905Y-86288571D01*
X131024286Y-86383810D01*
X110394762Y-57697619D02*
X110299524Y-57650000D01*
X110204286Y-57554762D01*
X110061429Y-57411905D01*
X109966190Y-57364286D01*
X109870952Y-57364286D01*
X109918571Y-57602381D02*
X109823333Y-57554762D01*
X109728095Y-57459524D01*
X109680476Y-57269048D01*
X109680476Y-56935714D01*
X109728095Y-56745238D01*
X109823333Y-56650000D01*
X109918571Y-56602381D01*
X110109048Y-56602381D01*
X110204286Y-56650000D01*
X110299524Y-56745238D01*
X110347143Y-56935714D01*
X110347143Y-57269048D01*
X110299524Y-57459524D01*
X110204286Y-57554762D01*
X110109048Y-57602381D01*
X109918571Y-57602381D01*
X111299524Y-57602381D02*
X110728095Y-57602381D01*
X111013809Y-57602381D02*
X111013809Y-56602381D01*
X110918571Y-56745238D01*
X110823333Y-56840476D01*
X110728095Y-56888095D01*
X128174762Y-61507619D02*
X128079524Y-61460000D01*
X127984286Y-61364762D01*
X127841429Y-61221905D01*
X127746190Y-61174286D01*
X127650952Y-61174286D01*
X127698571Y-61412381D02*
X127603333Y-61364762D01*
X127508095Y-61269524D01*
X127460476Y-61079048D01*
X127460476Y-60745714D01*
X127508095Y-60555238D01*
X127603333Y-60460000D01*
X127698571Y-60412381D01*
X127889048Y-60412381D01*
X127984286Y-60460000D01*
X128079524Y-60555238D01*
X128127143Y-60745714D01*
X128127143Y-61079048D01*
X128079524Y-61269524D01*
X127984286Y-61364762D01*
X127889048Y-61412381D01*
X127698571Y-61412381D01*
X128508095Y-60507619D02*
X128555714Y-60460000D01*
X128650952Y-60412381D01*
X128889048Y-60412381D01*
X128984286Y-60460000D01*
X129031905Y-60507619D01*
X129079524Y-60602857D01*
X129079524Y-60698095D01*
X129031905Y-60840952D01*
X128460476Y-61412381D01*
X129079524Y-61412381D01*
X130643334Y-105767143D02*
X130595715Y-105814762D01*
X130452858Y-105862381D01*
X130357620Y-105862381D01*
X130214762Y-105814762D01*
X130119524Y-105719524D01*
X130071905Y-105624286D01*
X130024286Y-105433810D01*
X130024286Y-105290952D01*
X130071905Y-105100476D01*
X130119524Y-105005238D01*
X130214762Y-104910000D01*
X130357620Y-104862381D01*
X130452858Y-104862381D01*
X130595715Y-104910000D01*
X130643334Y-104957619D01*
X131548096Y-104862381D02*
X131071905Y-104862381D01*
X131024286Y-105338571D01*
X131071905Y-105290952D01*
X131167143Y-105243333D01*
X131405239Y-105243333D01*
X131500477Y-105290952D01*
X131548096Y-105338571D01*
X131595715Y-105433810D01*
X131595715Y-105671905D01*
X131548096Y-105767143D01*
X131500477Y-105814762D01*
X131405239Y-105862381D01*
X131167143Y-105862381D01*
X131071905Y-105814762D01*
X131024286Y-105767143D01*
X127293810Y-96972381D02*
X127293810Y-95972381D01*
X128341429Y-96877143D02*
X128293810Y-96924762D01*
X128150953Y-96972381D01*
X128055715Y-96972381D01*
X127912857Y-96924762D01*
X127817619Y-96829524D01*
X127770000Y-96734286D01*
X127722381Y-96543810D01*
X127722381Y-96400952D01*
X127770000Y-96210476D01*
X127817619Y-96115238D01*
X127912857Y-96020000D01*
X128055715Y-95972381D01*
X128150953Y-95972381D01*
X128293810Y-96020000D01*
X128341429Y-96067619D01*
X129293810Y-96972381D02*
X128722381Y-96972381D01*
X129008095Y-96972381D02*
X129008095Y-95972381D01*
X128912857Y-96115238D01*
X128817619Y-96210476D01*
X128722381Y-96258095D01*
X104124286Y-62592381D02*
X104790953Y-63592381D01*
X104790953Y-62592381D02*
X104124286Y-63592381D01*
X105695715Y-63592381D02*
X105124286Y-63592381D01*
X105410000Y-63592381D02*
X105410000Y-62592381D01*
X105314762Y-62735238D01*
X105219524Y-62830476D01*
X105124286Y-62878095D01*
X106600477Y-62592381D02*
X106124286Y-62592381D01*
X106076667Y-63068571D01*
X106124286Y-63020952D01*
X106219524Y-62973333D01*
X106457620Y-62973333D01*
X106552858Y-63020952D01*
X106600477Y-63068571D01*
X106648096Y-63163810D01*
X106648096Y-63401905D01*
X106600477Y-63497143D01*
X106552858Y-63544762D01*
X106457620Y-63592381D01*
X106219524Y-63592381D01*
X106124286Y-63544762D01*
X106076667Y-63497143D01*
X93964286Y-64222381D02*
X94630953Y-65222381D01*
X94630953Y-64222381D02*
X93964286Y-65222381D01*
X95535715Y-65222381D02*
X94964286Y-65222381D01*
X95250000Y-65222381D02*
X95250000Y-64222381D01*
X95154762Y-64365238D01*
X95059524Y-64460476D01*
X94964286Y-64508095D01*
X95869048Y-64222381D02*
X96488096Y-64222381D01*
X96154762Y-64603333D01*
X96297620Y-64603333D01*
X96392858Y-64650952D01*
X96440477Y-64698571D01*
X96488096Y-64793810D01*
X96488096Y-65031905D01*
X96440477Y-65127143D01*
X96392858Y-65174762D01*
X96297620Y-65222381D01*
X96011905Y-65222381D01*
X95916667Y-65174762D01*
X95869048Y-65127143D01*
X95234286Y-96882381D02*
X95900953Y-97882381D01*
X95900953Y-96882381D02*
X95234286Y-97882381D01*
X96805715Y-97882381D02*
X96234286Y-97882381D01*
X96520000Y-97882381D02*
X96520000Y-96882381D01*
X96424762Y-97025238D01*
X96329524Y-97120476D01*
X96234286Y-97168095D01*
X97662858Y-96882381D02*
X97472381Y-96882381D01*
X97377143Y-96930000D01*
X97329524Y-96977619D01*
X97234286Y-97120476D01*
X97186667Y-97310952D01*
X97186667Y-97691905D01*
X97234286Y-97787143D01*
X97281905Y-97834762D01*
X97377143Y-97882381D01*
X97567620Y-97882381D01*
X97662858Y-97834762D01*
X97710477Y-97787143D01*
X97758096Y-97691905D01*
X97758096Y-97453810D01*
X97710477Y-97358571D01*
X97662858Y-97310952D01*
X97567620Y-97263333D01*
X97377143Y-97263333D01*
X97281905Y-97310952D01*
X97234286Y-97358571D01*
X97186667Y-97453810D01*
X88884286Y-111212381D02*
X89550953Y-112212381D01*
X89550953Y-111212381D02*
X88884286Y-112212381D01*
X90455715Y-112212381D02*
X89884286Y-112212381D01*
X90170000Y-112212381D02*
X90170000Y-111212381D01*
X90074762Y-111355238D01*
X89979524Y-111450476D01*
X89884286Y-111498095D01*
X91312858Y-111545714D02*
X91312858Y-112212381D01*
X91074762Y-111164762D02*
X90836667Y-111879048D01*
X91455715Y-111879048D01*
X90630476Y-103592381D02*
X91297143Y-104592381D01*
X91297143Y-103592381D02*
X90630476Y-104592381D01*
X92201905Y-104592381D02*
X91630476Y-104592381D01*
X91916190Y-104592381D02*
X91916190Y-103592381D01*
X91820952Y-103735238D01*
X91725714Y-103830476D01*
X91630476Y-103878095D01*
X110950476Y-107402381D02*
X111617143Y-108402381D01*
X111617143Y-107402381D02*
X110950476Y-108402381D01*
X111950476Y-107497619D02*
X111998095Y-107450000D01*
X112093333Y-107402381D01*
X112331429Y-107402381D01*
X112426667Y-107450000D01*
X112474286Y-107497619D01*
X112521905Y-107592857D01*
X112521905Y-107688095D01*
X112474286Y-107830952D01*
X111902857Y-108402381D01*
X112521905Y-108402381D01*
X86820476Y-98152381D02*
X87487143Y-99152381D01*
X87487143Y-98152381D02*
X86820476Y-99152381D01*
X87772857Y-98152381D02*
X88391905Y-98152381D01*
X88058571Y-98533333D01*
X88201429Y-98533333D01*
X88296667Y-98580952D01*
X88344286Y-98628571D01*
X88391905Y-98723810D01*
X88391905Y-98961905D01*
X88344286Y-99057143D01*
X88296667Y-99104762D01*
X88201429Y-99152381D01*
X87915714Y-99152381D01*
X87820476Y-99104762D01*
X87772857Y-99057143D01*
X147780476Y-117562381D02*
X148447143Y-118562381D01*
X148447143Y-117562381D02*
X147780476Y-118562381D01*
X149256667Y-117895714D02*
X149256667Y-118562381D01*
X149018571Y-117514762D02*
X148780476Y-118229048D01*
X149399524Y-118229048D01*
X147780476Y-111212381D02*
X148447143Y-112212381D01*
X148447143Y-111212381D02*
X147780476Y-112212381D01*
X149304286Y-111212381D02*
X148828095Y-111212381D01*
X148780476Y-111688571D01*
X148828095Y-111640952D01*
X148923333Y-111593333D01*
X149161429Y-111593333D01*
X149256667Y-111640952D01*
X149304286Y-111688571D01*
X149351905Y-111783810D01*
X149351905Y-112021905D01*
X149304286Y-112117143D01*
X149256667Y-112164762D01*
X149161429Y-112212381D01*
X148923333Y-112212381D01*
X148828095Y-112164762D01*
X148780476Y-112117143D01*
X147780476Y-104862381D02*
X148447143Y-105862381D01*
X148447143Y-104862381D02*
X147780476Y-105862381D01*
X149256667Y-104862381D02*
X149066190Y-104862381D01*
X148970952Y-104910000D01*
X148923333Y-104957619D01*
X148828095Y-105100476D01*
X148780476Y-105290952D01*
X148780476Y-105671905D01*
X148828095Y-105767143D01*
X148875714Y-105814762D01*
X148970952Y-105862381D01*
X149161429Y-105862381D01*
X149256667Y-105814762D01*
X149304286Y-105767143D01*
X149351905Y-105671905D01*
X149351905Y-105433810D01*
X149304286Y-105338571D01*
X149256667Y-105290952D01*
X149161429Y-105243333D01*
X148970952Y-105243333D01*
X148875714Y-105290952D01*
X148828095Y-105338571D01*
X148780476Y-105433810D01*
X147780476Y-92162381D02*
X148447143Y-93162381D01*
X148447143Y-92162381D02*
X147780476Y-93162381D01*
X148732857Y-92162381D02*
X149399524Y-92162381D01*
X148970952Y-93162381D01*
X147780476Y-85812381D02*
X148447143Y-86812381D01*
X148447143Y-85812381D02*
X147780476Y-86812381D01*
X148970952Y-86240952D02*
X148875714Y-86193333D01*
X148828095Y-86145714D01*
X148780476Y-86050476D01*
X148780476Y-86002857D01*
X148828095Y-85907619D01*
X148875714Y-85860000D01*
X148970952Y-85812381D01*
X149161429Y-85812381D01*
X149256667Y-85860000D01*
X149304286Y-85907619D01*
X149351905Y-86002857D01*
X149351905Y-86050476D01*
X149304286Y-86145714D01*
X149256667Y-86193333D01*
X149161429Y-86240952D01*
X148970952Y-86240952D01*
X148875714Y-86288571D01*
X148828095Y-86336190D01*
X148780476Y-86431429D01*
X148780476Y-86621905D01*
X148828095Y-86717143D01*
X148875714Y-86764762D01*
X148970952Y-86812381D01*
X149161429Y-86812381D01*
X149256667Y-86764762D01*
X149304286Y-86717143D01*
X149351905Y-86621905D01*
X149351905Y-86431429D01*
X149304286Y-86336190D01*
X149256667Y-86288571D01*
X149161429Y-86240952D01*
X147780476Y-79462381D02*
X148447143Y-80462381D01*
X148447143Y-79462381D02*
X147780476Y-80462381D01*
X148875714Y-80462381D02*
X149066190Y-80462381D01*
X149161429Y-80414762D01*
X149209048Y-80367143D01*
X149304286Y-80224286D01*
X149351905Y-80033810D01*
X149351905Y-79652857D01*
X149304286Y-79557619D01*
X149256667Y-79510000D01*
X149161429Y-79462381D01*
X148970952Y-79462381D01*
X148875714Y-79510000D01*
X148828095Y-79557619D01*
X148780476Y-79652857D01*
X148780476Y-79890952D01*
X148828095Y-79986190D01*
X148875714Y-80033810D01*
X148970952Y-80081429D01*
X149161429Y-80081429D01*
X149256667Y-80033810D01*
X149304286Y-79986190D01*
X149351905Y-79890952D01*
X148574286Y-66762381D02*
X149240953Y-67762381D01*
X149240953Y-66762381D02*
X148574286Y-67762381D01*
X150145715Y-67762381D02*
X149574286Y-67762381D01*
X149860000Y-67762381D02*
X149860000Y-66762381D01*
X149764762Y-66905238D01*
X149669524Y-67000476D01*
X149574286Y-67048095D01*
X150526667Y-66857619D02*
X150574286Y-66810000D01*
X150669524Y-66762381D01*
X150907620Y-66762381D01*
X151002858Y-66810000D01*
X151050477Y-66857619D01*
X151098096Y-66952857D01*
X151098096Y-67048095D01*
X151050477Y-67190952D01*
X150479048Y-67762381D01*
X151098096Y-67762381D01*
X148574286Y-60412381D02*
X149240953Y-61412381D01*
X149240953Y-60412381D02*
X148574286Y-61412381D01*
X150145715Y-61412381D02*
X149574286Y-61412381D01*
X149860000Y-61412381D02*
X149860000Y-60412381D01*
X149764762Y-60555238D01*
X149669524Y-60650476D01*
X149574286Y-60698095D01*
X151098096Y-61412381D02*
X150526667Y-61412381D01*
X150812381Y-61412381D02*
X150812381Y-60412381D01*
X150717143Y-60555238D01*
X150621905Y-60650476D01*
X150526667Y-60698095D01*
X148574286Y-54062381D02*
X149240953Y-55062381D01*
X149240953Y-54062381D02*
X148574286Y-55062381D01*
X150145715Y-55062381D02*
X149574286Y-55062381D01*
X149860000Y-55062381D02*
X149860000Y-54062381D01*
X149764762Y-54205238D01*
X149669524Y-54300476D01*
X149574286Y-54348095D01*
X150764762Y-54062381D02*
X150860001Y-54062381D01*
X150955239Y-54110000D01*
X151002858Y-54157619D01*
X151050477Y-54252857D01*
X151098096Y-54443333D01*
X151098096Y-54681429D01*
X151050477Y-54871905D01*
X151002858Y-54967143D01*
X150955239Y-55014762D01*
X150860001Y-55062381D01*
X150764762Y-55062381D01*
X150669524Y-55014762D01*
X150621905Y-54967143D01*
X150574286Y-54871905D01*
X150526667Y-54681429D01*
X150526667Y-54443333D01*
X150574286Y-54252857D01*
X150621905Y-54157619D01*
X150669524Y-54110000D01*
X150764762Y-54062381D01*
X102703334Y-107132381D02*
X102370000Y-106656190D01*
X102131905Y-107132381D02*
X102131905Y-106132381D01*
X102512858Y-106132381D01*
X102608096Y-106180000D01*
X102655715Y-106227619D01*
X102703334Y-106322857D01*
X102703334Y-106465714D01*
X102655715Y-106560952D01*
X102608096Y-106608571D01*
X102512858Y-106656190D01*
X102131905Y-106656190D01*
X103655715Y-107132381D02*
X103084286Y-107132381D01*
X103370000Y-107132381D02*
X103370000Y-106132381D01*
X103274762Y-106275238D01*
X103179524Y-106370476D01*
X103084286Y-106418095D01*
X102703334Y-114752381D02*
X102370000Y-114276190D01*
X102131905Y-114752381D02*
X102131905Y-113752381D01*
X102512858Y-113752381D01*
X102608096Y-113800000D01*
X102655715Y-113847619D01*
X102703334Y-113942857D01*
X102703334Y-114085714D01*
X102655715Y-114180952D01*
X102608096Y-114228571D01*
X102512858Y-114276190D01*
X102131905Y-114276190D01*
X103084286Y-113847619D02*
X103131905Y-113800000D01*
X103227143Y-113752381D01*
X103465239Y-113752381D01*
X103560477Y-113800000D01*
X103608096Y-113847619D01*
X103655715Y-113942857D01*
X103655715Y-114038095D01*
X103608096Y-114180952D01*
X103036667Y-114752381D01*
X103655715Y-114752381D01*
X102703334Y-122372381D02*
X102370000Y-121896190D01*
X102131905Y-122372381D02*
X102131905Y-121372381D01*
X102512858Y-121372381D01*
X102608096Y-121420000D01*
X102655715Y-121467619D01*
X102703334Y-121562857D01*
X102703334Y-121705714D01*
X102655715Y-121800952D01*
X102608096Y-121848571D01*
X102512858Y-121896190D01*
X102131905Y-121896190D01*
X103036667Y-121372381D02*
X103655715Y-121372381D01*
X103322381Y-121753333D01*
X103465239Y-121753333D01*
X103560477Y-121800952D01*
X103608096Y-121848571D01*
X103655715Y-121943810D01*
X103655715Y-122181905D01*
X103608096Y-122277143D01*
X103560477Y-122324762D01*
X103465239Y-122372381D01*
X103179524Y-122372381D01*
X103084286Y-122324762D01*
X103036667Y-122277143D01*
X102703334Y-118562381D02*
X102370000Y-118086190D01*
X102131905Y-118562381D02*
X102131905Y-117562381D01*
X102512858Y-117562381D01*
X102608096Y-117610000D01*
X102655715Y-117657619D01*
X102703334Y-117752857D01*
X102703334Y-117895714D01*
X102655715Y-117990952D01*
X102608096Y-118038571D01*
X102512858Y-118086190D01*
X102131905Y-118086190D01*
X103560477Y-117895714D02*
X103560477Y-118562381D01*
X103322381Y-117514762D02*
X103084286Y-118229048D01*
X103703334Y-118229048D01*
X119213334Y-114752381D02*
X118880000Y-114276190D01*
X118641905Y-114752381D02*
X118641905Y-113752381D01*
X119022858Y-113752381D01*
X119118096Y-113800000D01*
X119165715Y-113847619D01*
X119213334Y-113942857D01*
X119213334Y-114085714D01*
X119165715Y-114180952D01*
X119118096Y-114228571D01*
X119022858Y-114276190D01*
X118641905Y-114276190D01*
X120118096Y-113752381D02*
X119641905Y-113752381D01*
X119594286Y-114228571D01*
X119641905Y-114180952D01*
X119737143Y-114133333D01*
X119975239Y-114133333D01*
X120070477Y-114180952D01*
X120118096Y-114228571D01*
X120165715Y-114323810D01*
X120165715Y-114561905D01*
X120118096Y-114657143D01*
X120070477Y-114704762D01*
X119975239Y-114752381D01*
X119737143Y-114752381D01*
X119641905Y-114704762D01*
X119594286Y-114657143D01*
X130643334Y-109672381D02*
X130310000Y-109196190D01*
X130071905Y-109672381D02*
X130071905Y-108672381D01*
X130452858Y-108672381D01*
X130548096Y-108720000D01*
X130595715Y-108767619D01*
X130643334Y-108862857D01*
X130643334Y-109005714D01*
X130595715Y-109100952D01*
X130548096Y-109148571D01*
X130452858Y-109196190D01*
X130071905Y-109196190D01*
X131500477Y-108672381D02*
X131310000Y-108672381D01*
X131214762Y-108720000D01*
X131167143Y-108767619D01*
X131071905Y-108910476D01*
X131024286Y-109100952D01*
X131024286Y-109481905D01*
X131071905Y-109577143D01*
X131119524Y-109624762D01*
X131214762Y-109672381D01*
X131405239Y-109672381D01*
X131500477Y-109624762D01*
X131548096Y-109577143D01*
X131595715Y-109481905D01*
X131595715Y-109243810D01*
X131548096Y-109148571D01*
X131500477Y-109100952D01*
X131405239Y-109053333D01*
X131214762Y-109053333D01*
X131119524Y-109100952D01*
X131071905Y-109148571D01*
X131024286Y-109243810D01*
X130643334Y-113482381D02*
X130310000Y-113006190D01*
X130071905Y-113482381D02*
X130071905Y-112482381D01*
X130452858Y-112482381D01*
X130548096Y-112530000D01*
X130595715Y-112577619D01*
X130643334Y-112672857D01*
X130643334Y-112815714D01*
X130595715Y-112910952D01*
X130548096Y-112958571D01*
X130452858Y-113006190D01*
X130071905Y-113006190D01*
X130976667Y-112482381D02*
X131643334Y-112482381D01*
X131214762Y-113482381D01*
X135723334Y-80462381D02*
X135390000Y-79986190D01*
X135151905Y-80462381D02*
X135151905Y-79462381D01*
X135532858Y-79462381D01*
X135628096Y-79510000D01*
X135675715Y-79557619D01*
X135723334Y-79652857D01*
X135723334Y-79795714D01*
X135675715Y-79890952D01*
X135628096Y-79938571D01*
X135532858Y-79986190D01*
X135151905Y-79986190D01*
X136294762Y-79890952D02*
X136199524Y-79843333D01*
X136151905Y-79795714D01*
X136104286Y-79700476D01*
X136104286Y-79652857D01*
X136151905Y-79557619D01*
X136199524Y-79510000D01*
X136294762Y-79462381D01*
X136485239Y-79462381D01*
X136580477Y-79510000D01*
X136628096Y-79557619D01*
X136675715Y-79652857D01*
X136675715Y-79700476D01*
X136628096Y-79795714D01*
X136580477Y-79843333D01*
X136485239Y-79890952D01*
X136294762Y-79890952D01*
X136199524Y-79938571D01*
X136151905Y-79986190D01*
X136104286Y-80081429D01*
X136104286Y-80271905D01*
X136151905Y-80367143D01*
X136199524Y-80414762D01*
X136294762Y-80462381D01*
X136485239Y-80462381D01*
X136580477Y-80414762D01*
X136628096Y-80367143D01*
X136675715Y-80271905D01*
X136675715Y-80081429D01*
X136628096Y-79986190D01*
X136580477Y-79938571D01*
X136485239Y-79890952D01*
X134453334Y-69032381D02*
X134120000Y-68556190D01*
X133881905Y-69032381D02*
X133881905Y-68032381D01*
X134262858Y-68032381D01*
X134358096Y-68080000D01*
X134405715Y-68127619D01*
X134453334Y-68222857D01*
X134453334Y-68365714D01*
X134405715Y-68460952D01*
X134358096Y-68508571D01*
X134262858Y-68556190D01*
X133881905Y-68556190D01*
X134929524Y-69032381D02*
X135120000Y-69032381D01*
X135215239Y-68984762D01*
X135262858Y-68937143D01*
X135358096Y-68794286D01*
X135405715Y-68603810D01*
X135405715Y-68222857D01*
X135358096Y-68127619D01*
X135310477Y-68080000D01*
X135215239Y-68032381D01*
X135024762Y-68032381D01*
X134929524Y-68080000D01*
X134881905Y-68127619D01*
X134834286Y-68222857D01*
X134834286Y-68460952D01*
X134881905Y-68556190D01*
X134929524Y-68603810D01*
X135024762Y-68651429D01*
X135215239Y-68651429D01*
X135310477Y-68603810D01*
X135358096Y-68556190D01*
X135405715Y-68460952D01*
X133977143Y-57602381D02*
X133643809Y-57126190D01*
X133405714Y-57602381D02*
X133405714Y-56602381D01*
X133786667Y-56602381D01*
X133881905Y-56650000D01*
X133929524Y-56697619D01*
X133977143Y-56792857D01*
X133977143Y-56935714D01*
X133929524Y-57030952D01*
X133881905Y-57078571D01*
X133786667Y-57126190D01*
X133405714Y-57126190D01*
X134929524Y-57602381D02*
X134358095Y-57602381D01*
X134643809Y-57602381D02*
X134643809Y-56602381D01*
X134548571Y-56745238D01*
X134453333Y-56840476D01*
X134358095Y-56888095D01*
X135548571Y-56602381D02*
X135643810Y-56602381D01*
X135739048Y-56650000D01*
X135786667Y-56697619D01*
X135834286Y-56792857D01*
X135881905Y-56983333D01*
X135881905Y-57221429D01*
X135834286Y-57411905D01*
X135786667Y-57507143D01*
X135739048Y-57554762D01*
X135643810Y-57602381D01*
X135548571Y-57602381D01*
X135453333Y-57554762D01*
X135405714Y-57507143D01*
X135358095Y-57411905D01*
X135310476Y-57221429D01*
X135310476Y-56983333D01*
X135358095Y-56792857D01*
X135405714Y-56697619D01*
X135453333Y-56650000D01*
X135548571Y-56602381D01*
X122547143Y-53792381D02*
X122213809Y-53316190D01*
X121975714Y-53792381D02*
X121975714Y-52792381D01*
X122356667Y-52792381D01*
X122451905Y-52840000D01*
X122499524Y-52887619D01*
X122547143Y-52982857D01*
X122547143Y-53125714D01*
X122499524Y-53220952D01*
X122451905Y-53268571D01*
X122356667Y-53316190D01*
X121975714Y-53316190D01*
X123499524Y-53792381D02*
X122928095Y-53792381D01*
X123213809Y-53792381D02*
X123213809Y-52792381D01*
X123118571Y-52935238D01*
X123023333Y-53030476D01*
X122928095Y-53078095D01*
X124451905Y-53792381D02*
X123880476Y-53792381D01*
X124166190Y-53792381D02*
X124166190Y-52792381D01*
X124070952Y-52935238D01*
X123975714Y-53030476D01*
X123880476Y-53078095D01*
X121277143Y-122372381D02*
X120943809Y-121896190D01*
X120705714Y-122372381D02*
X120705714Y-121372381D01*
X121086667Y-121372381D01*
X121181905Y-121420000D01*
X121229524Y-121467619D01*
X121277143Y-121562857D01*
X121277143Y-121705714D01*
X121229524Y-121800952D01*
X121181905Y-121848571D01*
X121086667Y-121896190D01*
X120705714Y-121896190D01*
X122229524Y-122372381D02*
X121658095Y-122372381D01*
X121943809Y-122372381D02*
X121943809Y-121372381D01*
X121848571Y-121515238D01*
X121753333Y-121610476D01*
X121658095Y-121658095D01*
X122610476Y-121467619D02*
X122658095Y-121420000D01*
X122753333Y-121372381D01*
X122991429Y-121372381D01*
X123086667Y-121420000D01*
X123134286Y-121467619D01*
X123181905Y-121562857D01*
X123181905Y-121658095D01*
X123134286Y-121800952D01*
X122562857Y-122372381D01*
X123181905Y-122372381D01*
X114927143Y-63952381D02*
X114593809Y-63476190D01*
X114355714Y-63952381D02*
X114355714Y-62952381D01*
X114736667Y-62952381D01*
X114831905Y-63000000D01*
X114879524Y-63047619D01*
X114927143Y-63142857D01*
X114927143Y-63285714D01*
X114879524Y-63380952D01*
X114831905Y-63428571D01*
X114736667Y-63476190D01*
X114355714Y-63476190D01*
X115879524Y-63952381D02*
X115308095Y-63952381D01*
X115593809Y-63952381D02*
X115593809Y-62952381D01*
X115498571Y-63095238D01*
X115403333Y-63190476D01*
X115308095Y-63238095D01*
X116212857Y-62952381D02*
X116831905Y-62952381D01*
X116498571Y-63333333D01*
X116641429Y-63333333D01*
X116736667Y-63380952D01*
X116784286Y-63428571D01*
X116831905Y-63523810D01*
X116831905Y-63761905D01*
X116784286Y-63857143D01*
X116736667Y-63904762D01*
X116641429Y-63952381D01*
X116355714Y-63952381D01*
X116260476Y-63904762D01*
X116212857Y-63857143D01*
X133977143Y-72842381D02*
X133643809Y-72366190D01*
X133405714Y-72842381D02*
X133405714Y-71842381D01*
X133786667Y-71842381D01*
X133881905Y-71890000D01*
X133929524Y-71937619D01*
X133977143Y-72032857D01*
X133977143Y-72175714D01*
X133929524Y-72270952D01*
X133881905Y-72318571D01*
X133786667Y-72366190D01*
X133405714Y-72366190D01*
X134929524Y-72842381D02*
X134358095Y-72842381D01*
X134643809Y-72842381D02*
X134643809Y-71842381D01*
X134548571Y-71985238D01*
X134453333Y-72080476D01*
X134358095Y-72128095D01*
X135786667Y-72175714D02*
X135786667Y-72842381D01*
X135548571Y-71794762D02*
X135310476Y-72509048D01*
X135929524Y-72509048D01*
X133977143Y-53792381D02*
X133643809Y-53316190D01*
X133405714Y-53792381D02*
X133405714Y-52792381D01*
X133786667Y-52792381D01*
X133881905Y-52840000D01*
X133929524Y-52887619D01*
X133977143Y-52982857D01*
X133977143Y-53125714D01*
X133929524Y-53220952D01*
X133881905Y-53268571D01*
X133786667Y-53316190D01*
X133405714Y-53316190D01*
X134929524Y-53792381D02*
X134358095Y-53792381D01*
X134643809Y-53792381D02*
X134643809Y-52792381D01*
X134548571Y-52935238D01*
X134453333Y-53030476D01*
X134358095Y-53078095D01*
X135834286Y-52792381D02*
X135358095Y-52792381D01*
X135310476Y-53268571D01*
X135358095Y-53220952D01*
X135453333Y-53173333D01*
X135691429Y-53173333D01*
X135786667Y-53220952D01*
X135834286Y-53268571D01*
X135881905Y-53363810D01*
X135881905Y-53601905D01*
X135834286Y-53697143D01*
X135786667Y-53744762D01*
X135691429Y-53792381D01*
X135453333Y-53792381D01*
X135358095Y-53744762D01*
X135310476Y-53697143D01*
X117943334Y-87987143D02*
X117895715Y-88034762D01*
X117752858Y-88082381D01*
X117657620Y-88082381D01*
X117514762Y-88034762D01*
X117419524Y-87939524D01*
X117371905Y-87844286D01*
X117324286Y-87653810D01*
X117324286Y-87510952D01*
X117371905Y-87320476D01*
X117419524Y-87225238D01*
X117514762Y-87130000D01*
X117657620Y-87082381D01*
X117752858Y-87082381D01*
X117895715Y-87130000D01*
X117943334Y-87177619D01*
X118895715Y-88082381D02*
X118324286Y-88082381D01*
X118610000Y-88082381D02*
X118610000Y-87082381D01*
X118514762Y-87225238D01*
X118419524Y-87320476D01*
X118324286Y-87368095D01*
X117943334Y-110847143D02*
X117895715Y-110894762D01*
X117752858Y-110942381D01*
X117657620Y-110942381D01*
X117514762Y-110894762D01*
X117419524Y-110799524D01*
X117371905Y-110704286D01*
X117324286Y-110513810D01*
X117324286Y-110370952D01*
X117371905Y-110180476D01*
X117419524Y-110085238D01*
X117514762Y-109990000D01*
X117657620Y-109942381D01*
X117752858Y-109942381D01*
X117895715Y-109990000D01*
X117943334Y-110037619D01*
X118276667Y-109942381D02*
X118895715Y-109942381D01*
X118562381Y-110323333D01*
X118705239Y-110323333D01*
X118800477Y-110370952D01*
X118848096Y-110418571D01*
X118895715Y-110513810D01*
X118895715Y-110751905D01*
X118848096Y-110847143D01*
X118800477Y-110894762D01*
X118705239Y-110942381D01*
X118419524Y-110942381D01*
X118324286Y-110894762D01*
X118276667Y-110847143D01*
X119213334Y-118467143D02*
X119165715Y-118514762D01*
X119022858Y-118562381D01*
X118927620Y-118562381D01*
X118784762Y-118514762D01*
X118689524Y-118419524D01*
X118641905Y-118324286D01*
X118594286Y-118133810D01*
X118594286Y-117990952D01*
X118641905Y-117800476D01*
X118689524Y-117705238D01*
X118784762Y-117610000D01*
X118927620Y-117562381D01*
X119022858Y-117562381D01*
X119165715Y-117610000D01*
X119213334Y-117657619D01*
X120070477Y-117895714D02*
X120070477Y-118562381D01*
X119832381Y-117514762D02*
X119594286Y-118229048D01*
X120213334Y-118229048D01*
X139533334Y-119737143D02*
X139485715Y-119784762D01*
X139342858Y-119832381D01*
X139247620Y-119832381D01*
X139104762Y-119784762D01*
X139009524Y-119689524D01*
X138961905Y-119594286D01*
X138914286Y-119403810D01*
X138914286Y-119260952D01*
X138961905Y-119070476D01*
X139009524Y-118975238D01*
X139104762Y-118880000D01*
X139247620Y-118832381D01*
X139342858Y-118832381D01*
X139485715Y-118880000D01*
X139533334Y-118927619D01*
X140390477Y-118832381D02*
X140200000Y-118832381D01*
X140104762Y-118880000D01*
X140057143Y-118927619D01*
X139961905Y-119070476D01*
X139914286Y-119260952D01*
X139914286Y-119641905D01*
X139961905Y-119737143D01*
X140009524Y-119784762D01*
X140104762Y-119832381D01*
X140295239Y-119832381D01*
X140390477Y-119784762D01*
X140438096Y-119737143D01*
X140485715Y-119641905D01*
X140485715Y-119403810D01*
X140438096Y-119308571D01*
X140390477Y-119260952D01*
X140295239Y-119213333D01*
X140104762Y-119213333D01*
X140009524Y-119260952D01*
X139961905Y-119308571D01*
X139914286Y-119403810D01*
X129373334Y-118467143D02*
X129325715Y-118514762D01*
X129182858Y-118562381D01*
X129087620Y-118562381D01*
X128944762Y-118514762D01*
X128849524Y-118419524D01*
X128801905Y-118324286D01*
X128754286Y-118133810D01*
X128754286Y-117990952D01*
X128801905Y-117800476D01*
X128849524Y-117705238D01*
X128944762Y-117610000D01*
X129087620Y-117562381D01*
X129182858Y-117562381D01*
X129325715Y-117610000D01*
X129373334Y-117657619D01*
X129706667Y-117562381D02*
X130373334Y-117562381D01*
X129944762Y-118562381D01*
X121753334Y-105767143D02*
X121705715Y-105814762D01*
X121562858Y-105862381D01*
X121467620Y-105862381D01*
X121324762Y-105814762D01*
X121229524Y-105719524D01*
X121181905Y-105624286D01*
X121134286Y-105433810D01*
X121134286Y-105290952D01*
X121181905Y-105100476D01*
X121229524Y-105005238D01*
X121324762Y-104910000D01*
X121467620Y-104862381D01*
X121562858Y-104862381D01*
X121705715Y-104910000D01*
X121753334Y-104957619D01*
X122324762Y-105290952D02*
X122229524Y-105243333D01*
X122181905Y-105195714D01*
X122134286Y-105100476D01*
X122134286Y-105052857D01*
X122181905Y-104957619D01*
X122229524Y-104910000D01*
X122324762Y-104862381D01*
X122515239Y-104862381D01*
X122610477Y-104910000D01*
X122658096Y-104957619D01*
X122705715Y-105052857D01*
X122705715Y-105100476D01*
X122658096Y-105195714D01*
X122610477Y-105243333D01*
X122515239Y-105290952D01*
X122324762Y-105290952D01*
X122229524Y-105338571D01*
X122181905Y-105386190D01*
X122134286Y-105481429D01*
X122134286Y-105671905D01*
X122181905Y-105767143D01*
X122229524Y-105814762D01*
X122324762Y-105862381D01*
X122515239Y-105862381D01*
X122610477Y-105814762D01*
X122658096Y-105767143D01*
X122705715Y-105671905D01*
X122705715Y-105481429D01*
X122658096Y-105386190D01*
X122610477Y-105338571D01*
X122515239Y-105290952D01*
X126833334Y-76557143D02*
X126785715Y-76604762D01*
X126642858Y-76652381D01*
X126547620Y-76652381D01*
X126404762Y-76604762D01*
X126309524Y-76509524D01*
X126261905Y-76414286D01*
X126214286Y-76223810D01*
X126214286Y-76080952D01*
X126261905Y-75890476D01*
X126309524Y-75795238D01*
X126404762Y-75700000D01*
X126547620Y-75652381D01*
X126642858Y-75652381D01*
X126785715Y-75700000D01*
X126833334Y-75747619D01*
X127309524Y-76652381D02*
X127500000Y-76652381D01*
X127595239Y-76604762D01*
X127642858Y-76557143D01*
X127738096Y-76414286D01*
X127785715Y-76223810D01*
X127785715Y-75842857D01*
X127738096Y-75747619D01*
X127690477Y-75700000D01*
X127595239Y-75652381D01*
X127404762Y-75652381D01*
X127309524Y-75700000D01*
X127261905Y-75747619D01*
X127214286Y-75842857D01*
X127214286Y-76080952D01*
X127261905Y-76176190D01*
X127309524Y-76223810D01*
X127404762Y-76271429D01*
X127595239Y-76271429D01*
X127690477Y-76223810D01*
X127738096Y-76176190D01*
X127785715Y-76080952D01*
X113657143Y-99417143D02*
X113609524Y-99464762D01*
X113466667Y-99512381D01*
X113371429Y-99512381D01*
X113228571Y-99464762D01*
X113133333Y-99369524D01*
X113085714Y-99274286D01*
X113038095Y-99083810D01*
X113038095Y-98940952D01*
X113085714Y-98750476D01*
X113133333Y-98655238D01*
X113228571Y-98560000D01*
X113371429Y-98512381D01*
X113466667Y-98512381D01*
X113609524Y-98560000D01*
X113657143Y-98607619D01*
X114609524Y-99512381D02*
X114038095Y-99512381D01*
X114323809Y-99512381D02*
X114323809Y-98512381D01*
X114228571Y-98655238D01*
X114133333Y-98750476D01*
X114038095Y-98798095D01*
X115228571Y-98512381D02*
X115323810Y-98512381D01*
X115419048Y-98560000D01*
X115466667Y-98607619D01*
X115514286Y-98702857D01*
X115561905Y-98893333D01*
X115561905Y-99131429D01*
X115514286Y-99321905D01*
X115466667Y-99417143D01*
X115419048Y-99464762D01*
X115323810Y-99512381D01*
X115228571Y-99512381D01*
X115133333Y-99464762D01*
X115085714Y-99417143D01*
X115038095Y-99321905D01*
X114990476Y-99131429D01*
X114990476Y-98893333D01*
X115038095Y-98702857D01*
X115085714Y-98607619D01*
X115133333Y-98560000D01*
X115228571Y-98512381D01*
X135247143Y-65127143D02*
X135199524Y-65174762D01*
X135056667Y-65222381D01*
X134961429Y-65222381D01*
X134818571Y-65174762D01*
X134723333Y-65079524D01*
X134675714Y-64984286D01*
X134628095Y-64793810D01*
X134628095Y-64650952D01*
X134675714Y-64460476D01*
X134723333Y-64365238D01*
X134818571Y-64270000D01*
X134961429Y-64222381D01*
X135056667Y-64222381D01*
X135199524Y-64270000D01*
X135247143Y-64317619D01*
X136199524Y-65222381D02*
X135628095Y-65222381D01*
X135913809Y-65222381D02*
X135913809Y-64222381D01*
X135818571Y-64365238D01*
X135723333Y-64460476D01*
X135628095Y-64508095D01*
X137151905Y-65222381D02*
X136580476Y-65222381D01*
X136866190Y-65222381D02*
X136866190Y-64222381D01*
X136770952Y-64365238D01*
X136675714Y-64460476D01*
X136580476Y-64508095D01*
X135247143Y-61317143D02*
X135199524Y-61364762D01*
X135056667Y-61412381D01*
X134961429Y-61412381D01*
X134818571Y-61364762D01*
X134723333Y-61269524D01*
X134675714Y-61174286D01*
X134628095Y-60983810D01*
X134628095Y-60840952D01*
X134675714Y-60650476D01*
X134723333Y-60555238D01*
X134818571Y-60460000D01*
X134961429Y-60412381D01*
X135056667Y-60412381D01*
X135199524Y-60460000D01*
X135247143Y-60507619D01*
X136199524Y-61412381D02*
X135628095Y-61412381D01*
X135913809Y-61412381D02*
X135913809Y-60412381D01*
X135818571Y-60555238D01*
X135723333Y-60650476D01*
X135628095Y-60698095D01*
X136580476Y-60507619D02*
X136628095Y-60460000D01*
X136723333Y-60412381D01*
X136961429Y-60412381D01*
X137056667Y-60460000D01*
X137104286Y-60507619D01*
X137151905Y-60602857D01*
X137151905Y-60698095D01*
X137104286Y-60840952D01*
X136532857Y-61412381D01*
X137151905Y-61412381D01*
X109847143Y-54967143D02*
X109799524Y-55014762D01*
X109656667Y-55062381D01*
X109561429Y-55062381D01*
X109418571Y-55014762D01*
X109323333Y-54919524D01*
X109275714Y-54824286D01*
X109228095Y-54633810D01*
X109228095Y-54490952D01*
X109275714Y-54300476D01*
X109323333Y-54205238D01*
X109418571Y-54110000D01*
X109561429Y-54062381D01*
X109656667Y-54062381D01*
X109799524Y-54110000D01*
X109847143Y-54157619D01*
X110799524Y-55062381D02*
X110228095Y-55062381D01*
X110513809Y-55062381D02*
X110513809Y-54062381D01*
X110418571Y-54205238D01*
X110323333Y-54300476D01*
X110228095Y-54348095D01*
X111132857Y-54062381D02*
X111751905Y-54062381D01*
X111418571Y-54443333D01*
X111561429Y-54443333D01*
X111656667Y-54490952D01*
X111704286Y-54538571D01*
X111751905Y-54633810D01*
X111751905Y-54871905D01*
X111704286Y-54967143D01*
X111656667Y-55014762D01*
X111561429Y-55062381D01*
X111275714Y-55062381D01*
X111180476Y-55014762D01*
X111132857Y-54967143D01*
X93813334Y-121007143D02*
X93765715Y-121054762D01*
X93622858Y-121102381D01*
X93527620Y-121102381D01*
X93384762Y-121054762D01*
X93289524Y-120959524D01*
X93241905Y-120864286D01*
X93194286Y-120673810D01*
X93194286Y-120530952D01*
X93241905Y-120340476D01*
X93289524Y-120245238D01*
X93384762Y-120150000D01*
X93527620Y-120102381D01*
X93622858Y-120102381D01*
X93765715Y-120150000D01*
X93813334Y-120197619D01*
X94194286Y-120197619D02*
X94241905Y-120150000D01*
X94337143Y-120102381D01*
X94575239Y-120102381D01*
X94670477Y-120150000D01*
X94718096Y-120197619D01*
X94765715Y-120292857D01*
X94765715Y-120388095D01*
X94718096Y-120530952D01*
X94146667Y-121102381D01*
X94765715Y-121102381D01*
M02*
