M48
;DRILL file {KiCad 4.0.6} date 08/31/17 07:48:42
;FORMAT={-:-/ absolute / metric / decimal}
FMAT,2
METRIC,TZ
T1C0.800
T2C0.900
T3C1.000
T4C1.200
%
G90
G05
M71
T1
X92.75Y-120.65
X95.25Y-120.65
X99.06Y-106.68
X99.06Y-110.49
X99.06Y-114.3
X99.06Y-118.11
X99.06Y-121.92
X106.68Y-106.68
X106.68Y-110.49
X106.68Y-114.3
X106.68Y-118.11
X106.68Y-121.92
X109.26Y-53.34
X111.76Y-53.34
X111.76Y-63.5
X111.84Y-99.06
X113.03Y-58.42
X115.57Y-58.42
X115.57Y-114.3
X115.65Y-110.49
X116.84Y-68.58
X116.84Y-72.39
X116.84Y-76.2
X116.84Y-80.01
X116.84Y-99.06
X116.88Y-86.36
X116.92Y-118.11
X118.11Y-58.42
X118.11Y-121.92
X119.38Y-53.34
X119.38Y-63.5
X119.38Y-86.36
X119.38Y-105.41
X120.65Y-110.49
X121.92Y-118.11
X123.19Y-114.3
X124.38Y-105.41
X124.46Y-59.69
X124.46Y-62.23
X124.46Y-64.77
X124.46Y-68.58
X124.46Y-72.39
X124.46Y-76.2
X124.46Y-80.01
X124.46Y-92.71
X124.46Y-100.33
X125.73Y-121.92
X127.Y-53.34
X127.Y-92.71
X127.Y-100.33
X127.Y-109.22
X127.Y-113.03
X127.08Y-118.11
X128.27Y-74.97
X128.27Y-77.47
X129.54Y-92.71
X129.54Y-100.33
X130.81Y-53.34
X130.81Y-57.15
X130.81Y-68.58
X130.81Y-72.39
X132.08Y-80.01
X132.08Y-92.71
X132.08Y-100.33
X132.08Y-118.11
X133.35Y-60.96
X133.35Y-64.77
X134.62Y-109.22
X134.62Y-113.03
X138.35Y-60.96
X138.35Y-64.77
X138.43Y-53.34
X138.43Y-57.15
X138.43Y-68.58
X138.43Y-72.39
X138.47Y-118.11
X139.7Y-80.01
X140.97Y-118.11
T2
X125.73Y-85.09
X125.73Y-87.63
T3
X127.12Y-105.41
X134.62Y-105.41
T4
X87.63Y-101.6
X91.44Y-66.04
X92.71Y-106.68
X92.71Y-114.3
X96.52Y-100.33
X105.41Y-66.04
X111.76Y-105.41
X146.05Y-54.61
X146.05Y-60.96
X146.05Y-67.31
X146.05Y-80.01
X146.05Y-86.36
X146.05Y-92.71
X146.05Y-105.41
X146.05Y-111.76
X146.05Y-118.11
T0
M30
